<?xml version="1.0" encoding="utf-8"?>
<!-- Generator: Adobe Illustrator 18.1.0, SVG Export Plug-In . SVG Version: 6.00 Build 0)  -->
<!DOCTYPE svg PUBLIC "-//W3C//DTD SVG 1.1//EN" "http://www.w3.org/Graphics/SVG/1.1/DTD/svg11.dtd">
<svg version="1.1" id="Warstwa_1" xmlns="http://www.w3.org/2000/svg" xmlns:xlink="http://www.w3.org/1999/xlink" x="0px" y="0px"
	 width="68.3px" height="81px" viewBox="0 0 68.3 81" enable-background="new 0 0 68.3 81" xml:space="preserve">
<path fill="#FFFFFF" d="M0,81h6.4V0H0V81z M52.1,62c-12.3,5-19.5-9.1-19.5-9.1l-3.3-7.7l0,0l0,0l-2.8-6.7c0,0-5.1-15,7-20.3
	c0.9-0.3,3.6-0.9,4.2,1c0.5,1.4,3,7,3.7,8.8c0.8,1.8-1.5,3.3-5,4c-1,0.2-2.9,1.4-2.1,3.2c0.4,0.8,1.6,3.6,2.8,6.6l0,0
	c1.4,3.4,2.9,6.8,3.2,7.7c0.7,1.9,2.9,1.3,3.7,0.7c2.9-2,5.6-2.6,6.3-0.8c0.8,1.8,3.1,7.5,3.7,8.8C55.2,60.1,52.9,61.6,52.1,62
	 M68.3,0H9.5v81h58.8V0z"/>
</svg>
