<?xml version="1.0" encoding="utf-8"?>
<!-- Generator: Adobe Illustrator 18.1.0, SVG Export Plug-In . SVG Version: 6.00 Build 0)  -->
<!DOCTYPE svg PUBLIC "-//W3C//DTD SVG 1.1//EN" "http://www.w3.org/Graphics/SVG/1.1/DTD/svg11.dtd">
<svg version="1.1" id="Warstwa_1" xmlns="http://www.w3.org/2000/svg" xmlns:xlink="http://www.w3.org/1999/xlink" x="0px" y="0px"
	 width="81px" height="64px" viewBox="0 0 81 64" enable-background="new 0 0 81 64" xml:space="preserve">
<path fill="#FFFFFF" d="M51.9,40.7c0-6.2-5-11.3-11.3-11.3c-6.2,0-11.3,5-11.3,11.3c0,6.2,5,11.3,11.3,11.3
	C46.9,51.9,51.9,46.9,51.9,40.7 M55.7,40.7c0,8.3-6.7,15-15,15c-8.3,0-15-6.7-15-15s6.7-15,15-15C49,25.6,55.7,32.4,55.7,40.7
	 M16.8,22.1c0,2-1.6,3.5-3.5,3.5c-2,0-3.5-1.6-3.5-3.5c0-2,1.6-3.5,3.5-3.5C15.2,18.6,16.8,20.1,16.8,22.1 M81,54V20.3
	c0,0,0-10.1-10.1-10.1H55.7V4.2c0,0,0-4.2-4.2-4.2H29.5c0,0-4.2,0-4.2,4.2v5.9H10.1c0,0-10.1,0-10.1,10.1V54c0,0,0,10.1,10.1,10.1
	h60.8C70.9,64.1,81,64.1,81,54"/>
</svg>
