<?xml version="1.0" encoding="utf-8"?>
<!-- Generator: Adobe Illustrator 18.1.1, SVG Export Plug-In . SVG Version: 6.00 Build 0)  -->
<svg version="1.1" id="Layer_1" xmlns="http://www.w3.org/2000/svg" xmlns:xlink="http://www.w3.org/1999/xlink" x="0px" y="0px"
	 viewBox="0 0 363.2 198.8" enable-background="new 0 0 363.2 198.8" xml:space="preserve">
<path opacity="0.49" fill="#ED2E7A" enable-background="new    " d="M80.4,22c-2.3,0-4.1,1.8-4.1,4.1v89.4c0,2.3,1.8,4.1,4.1,4.1
	H199c2.3,0,4.1-1.8,4.1-4.1V26.1c0-2.3-1.8-4.1-4.1-4.1H80.4z"/>
<path fill="#ED2E7A" d="M96.3,126.3c0.1-0.1,0.1-0.1,0.2-0.2c0.1-0.1,0.3-0.2,0.4-0.2c0.1-0.1,0.2-0.2,0.2-0.4
	c0-0.1-0.2-0.3-0.3-0.3c-0.2,0-0.3,0-0.5,0L96.3,126.3L96.3,126.3z M95.5,128.4c0-1.1,0-2.3,0-3.4c0-0.2,0.3-0.5,0.5-0.5
	c0.3,0,0.7,0,1,0s0.6,0.2,0.8,0.5c0.2,0.2,0.2,0.4,0.2,0.6c0,0.3-0.1,0.5-0.2,0.7c-0.1,0.1-0.3,0.2-0.4,0.3c0,0,0,0-0.1,0
	c0.1,0.2,0.2,0.4,0.3,0.6c0.2,0.4,0.5,0.8,0.7,1.1c0,0,0,0,0,0.1h-1c-0.1-0.1-0.1-0.3-0.2-0.4c-0.3-0.5-0.5-0.9-0.8-1.4v1.8
	L95.5,128.4L95.5,128.4z"/>
<path fill="#ED2E7A" d="M94,126.9c-0.1-0.5-0.2-1.1-0.3-1.6l0,0c-0.1,0.5-0.2,1-0.4,1.6H94z M91.9,128.4c0-0.1,0-0.2,0.1-0.3
	c0.2-0.6,0.4-1.1,0.5-1.7c0.2-0.5,0.3-1.1,0.5-1.6c0.1-0.2,0.2-0.3,0.4-0.4c0.2-0.1,0.6,0,0.7,0.2c0.2,0.2,0.2,0.5,0.3,0.7
	c0.1,0.3,0.2,0.7,0.3,1c0.2,0.6,0.4,1.3,0.6,1.9v0.1h-0.9c-0.1-0.3-0.1-0.5-0.2-0.8c-0.4,0-0.7,0-1.1,0H93c-0.1,0.2-0.1,0.5-0.2,0.7
	h-0.9L91.9,128.4L91.9,128.4z"/>
<path fill="#ED2E7A" d="M88.9,126.9c-0.1-0.5-0.2-1.1-0.3-1.6l0,0c-0.1,0.5-0.2,1-0.4,1.6H88.9z M86.9,128.3
	c0.1-0.3,0.2-0.5,0.3-0.8s0.2-0.6,0.3-1c0.2-0.6,0.4-1.1,0.5-1.7c0.1-0.2,0.2-0.4,0.4-0.4c0.2-0.1,0.6,0,0.7,0.2
	c0.2,0.2,0.2,0.5,0.3,0.7c0.1,0.3,0.2,0.7,0.3,1c0.2,0.6,0.4,1.3,0.6,1.9v0.1h-0.9c-0.1-0.3-0.1-0.5-0.2-0.8c-0.4,0-0.7,0-1.1,0H88
	c-0.1,0.2-0.1,0.5-0.2,0.7L86.9,128.3L86.9,128.3z"/>
<polygon fill="#ED2E7A" points="90.6,128.4 90.6,125.2 89.9,125.2 89.9,124.4 92.3,124.4 92.3,125.2 91.5,125.2 91.5,128.4 "/>
<rect x="98.4" y="124.4" fill="#ED2E7A" width="0.9" height="3.9"/>
<path fill="#ED2E7A" d="M83,124.5c0,0.5,0,1.1,0,1.6c0,0.2,0,0.4-0.1,0.6c0,0.2-0.1,0.4-0.2,0.6c-0.1,0.2-0.2,0.3-0.4,0.4
	c-0.2,0.2-0.4,0.3-0.6,0.4c-0.2,0.1-0.3,0.1-0.5,0.1c-0.1,0-0.2,0-0.3,0v-0.5c0.1,0,0.3-0.1,0.4-0.1s0.2-0.1,0.3-0.2
	c0.1-0.1,0.2-0.2,0.3-0.2c0.1-0.1,0.2-0.2,0.3-0.3s0.2-0.3,0.2-0.4c0-0.1,0.1-0.2,0.1-0.4c0-0.1,0-0.2,0-0.3s0-0.1,0-0.2
	c0-0.4,0-0.7,0-1.1L83,124.5L83,124.5z"/>
<path fill="#ED2E7A" d="M84.2,124.5c0,0.4,0,0.8,0,1.2c0,0.1,0,0.3,0.1,0.4c0,0.2,0.1,0.3,0.2,0.5c0.1,0.2,0.2,0.3,0.3,0.5
	c0.1,0.1,0.2,0.2,0.3,0.3c0.2,0.1,0.4,0.2,0.6,0.3c0.1,0,0.2,0,0.3,0.1v0.6c-0.3,0-0.6-0.1-0.8-0.2c-0.1-0.1-0.3-0.1-0.4-0.2
	c-0.2-0.1-0.4-0.3-0.5-0.5s-0.2-0.3-0.3-0.5c0-0.1-0.1-0.2-0.1-0.3s0-0.1,0-0.2c0-0.6,0-1.2,0-1.8h0.3L84.2,124.5L84.2,124.5z"/>
<rect x="83.2" y="124.5" fill="#ED2E7A" width="0.5" height="3.8"/>
<path fill="#ED2E7A" d="M4.7,190.3h273.9c2.2,0,3.9-1.8,4.2-3.5H0C0.3,188.6,2.5,190.3,4.7,190.3"/>
<rect x="119.5" y="71.7" fill="#FFFFFF" width="9.1" height="4.5"/>
<polygon fill="#FFFFFF" points="142.2,49 142.2,44.5 119.5,44.5 114.9,44.5 114.9,71.7 119.5,71.7 119.5,49 "/>
<rect x="142.2" y="49" fill="#FFFFFF" width="4.5" height="9.1"/>
<rect x="128.5" y="67.2" fill="#FFFFFF" width="4.5" height="4.5"/>
<rect x="137.6" y="58.1" fill="#FFFFFF" width="4.5" height="4.5"/>
<rect x="133.1" y="71.7" fill="#FFFFFF" width="4.5" height="4.5"/>
<rect x="142.2" y="62.6" fill="#FFFFFF" width="4.5" height="4.5"/>
<rect x="137.6" y="76.3" fill="#FFFFFF" width="4.5" height="4.5"/>
<rect x="146.7" y="67.2" fill="#FFFFFF" width="4.5" height="4.5"/>
<rect x="151.3" y="71.7" fill="#FFFFFF" width="4.5" height="4.5"/>
<rect x="142.2" y="80.8" fill="#FFFFFF" width="4.5" height="4.5"/>
<rect x="155.8" y="76.3" fill="#FFFFFF" width="4.5" height="4.5"/>
<rect x="160.4" y="80.8" fill="#FFFFFF" width="4.5" height="4.5"/>
<rect x="155.8" y="85.4" fill="#FFFFFF" width="4.5" height="4.5"/>
<rect x="146.7" y="85.4" fill="#FFFFFF" width="4.5" height="4.5"/>
<rect x="151.3" y="89.9" fill="#FFFFFF" width="4.5" height="4.5"/>
<polygon fill="#ED2E7A" points="151.3,80.8 151.3,76.3 146.7,76.3 146.7,71.7 142.2,71.7 142.2,67.2 137.6,67.2 137.6,62.6 
	133.1,62.6 133.1,58.1 137.6,58.1 137.6,53.5 133.1,53.5 119.5,53.5 119.5,67.2 119.5,71.7 128.5,71.7 128.5,67.2 133.1,67.2 
	133.1,71.7 137.6,71.7 137.6,76.3 142.2,76.3 142.2,80.8 146.7,80.8 146.7,85.4 151.3,85.4 151.3,89.9 155.8,89.9 155.8,80.8 "/>
<polygon fill="#CA2869" points="142.2,53.5 142.2,49 119.5,49 119.5,53.5 137.6,53.5 137.6,58.1 142.2,58.1 "/>
<rect x="133.1" y="58.1" fill="#CA2869" width="4.5" height="4.5"/>
<rect x="137.6" y="62.6" fill="#CA2869" width="4.5" height="4.5"/>
<rect x="142.2" y="67.2" fill="#CA2869" width="4.5" height="4.5"/>
<rect x="146.7" y="71.7" fill="#CA2869" width="4.5" height="4.5"/>
<rect x="151.3" y="76.3" fill="#CA2869" width="4.5" height="4.5"/>
<rect x="155.8" y="80.8" fill="#CA2869" width="4.5" height="4.5"/>
<path fill="#ED2E7A" d="M320.3,167.4c1.4-0.2,5.9-0.8,10.8-1.5L319,159l-9.9,1.2c-3.1,0-5.7,2.3-5.8,5.1l12.2,5.3
	C316,169.8,317.4,167.9,320.3,167.4z"/>
<path fill="#ED2E7A" d="M345.8,164.1c-0.1-0.3-0.6-0.6-0.9-0.7l-9.9-5.3c-0.6-0.4-1.3-0.8-2.1-0.7l-13.2,1.6l12,6.9
	C337.7,165.1,344.1,164.3,345.8,164.1z"/>
<path fill="#ED2E7A" d="M362.5,183.5l-16.3-19.1c-0.8,0.1-7.9,1-14.4,1.9l0.1-0.4c-0.3,0-0.5,0-0.8,0.1l0.6,0.3
	c-5.1,0.7-10,1.3-11.5,1.5c-2.7,0.4-4,2.3-4.4,3l17.6,22.4l29.7-5.6V186C363.2,185.2,363.1,184.2,362.5,183.5z"/>
<path fill="#ED2E7A" d="M283.2,185.8L283.2,185.8C283.2,185.9,283.2,185.9,283.2,185.8C283.2,185.9,283.2,185.8,283.2,185.8z"/>
<path fill="#ED2E7A" d="M315.5,171.1l-0.1-0.2h-0.3l-11.9-4.9v4.8c-5,0.7-15.5,1.3-18.5-2c-0.8-0.9-1-2-0.5-3.4
	c0.7-2.6,0.4-4.8-1-6.5c-2.6-3-8-3.2-10.5-3.2l-2.1-5.9l-12.1-16.4c-0.5-1-1.5-1.4-2.6-1.4h-36.6c3-3,4.9-6.7,4.9-10.9L229,13.3
	c0-7.6-6.2-13.4-13.8-13.4H68.9c-7.6,0-13.8,5.5-13.8,13.1L60,121.3c0,4.1,1.8,8.6,4.7,10.6H24.2c-1.2,0-2.3,0.5-2.7,1.6l-9.8,15.1
	c0,0-11.2,32.3-11.2,32.6c-0.4,1.5-0.3,3.6-0.3,4.8c0,0,0-0.2,0-0.2h4.3h275h3.7c0-0.8-0.4-2.2-0.6-3.3c0-0.3-0.2-0.6-0.4-0.9
	l-8.8-24.4c2.7,0,6.8,0.4,8.6,2.5c1,1.2,1.2,2.8,0.7,4.9c-0.5,2-0.2,3.7,1,5c2.2,2.5,7.1,3.2,11.8,3.1c3.2,0,5.7-0.3,7.7-0.5v2.6
	c0,0.4,0.3,0.8,0.6,1.1l25.8,22.6c0.3,0.3,0.8,0.4,1.3,0.3l29-4.8c0.5-0.1,0.9-0.4,1.1-0.8l0.5-1c0.1-0.2,0.2-0.3,0.3-0.4l0.9-1
	c0.5-0.5,0.5-1.2,0.5-1.9v-1l-29.8,5.6L315.5,171.1z M207.6,154.4c0.4,0,0.5,0.6,0.5,1.3v2.1h-10v-2.1c0-0.7,0.9-1.3,1.3-1.3
	c0,0,2.6,0.2,4.3,0.2S207.6,154.4,207.6,154.4z M76.2,25.9c0-2.3,1.8-4.1,4.1-4.1h118.8c2.3,0,4.1,1.8,4.1,4.1v89.8
	c0,2.3-1.8,4.1-4.1,4.1H80.3c-2.3,0-4.1-1.8-4.1-4.1V25.9z M187.2,157.8v-2.1c0-0.7,0.8-1.3,1.2-1.3c0,0,2.4,0.2,4.1,0.2
	c1.7,0,4.2-0.2,4.2-0.2c0.4,0,0.5,0.6,0.5,1.3v2.1H187.2z M197.2,160.2v2.6h-10v-2.6c0-0.7,0.8-1.3,1.3-1.3c0,0,2.7,0.2,4.4,0.2
	c1.8,0,3.9-0.2,3.9-0.2C197.1,158.9,197.2,159.5,197.2,160.2z M193.2,128.8v-1h2v1H193.2z M96.2,168.8c0-1,0.6-1.3,1.1-1.3
	c0,0,2.6,0.2,4.4,0.2c1.8,0,3.9-0.2,3.9-0.2c0.4,0,0.6,0.6,0.6,1.3v3h-10L96.2,168.8L96.2,168.8z M34.5,163c1.8,0,4-0.2,4-0.2
	c0.4,0,0.6,0.6,0.6,1.3v2.7h-10v-2.7c0-0.7,0.5-1.3,0.9-1.3C30.2,162.8,32.7,163,34.5,163z M30.2,161.8v-2.1c0-0.7,0.7-1.3,1.2-1.3
	c0,0,2.6,0.2,4.3,0.2c1.8,0,4-0.2,4-0.2c0.4,0,0.6,0.6,0.6,1.3v2.1H30.2z M39.8,167.5c0,0,2.6,0.2,4.4,0.2s4.2-0.2,4.2-0.2
	c0.4,0,0.8,0.6,0.8,1.3v2H38.8l-0.1-2.3C38.7,167.9,39.3,167.5,39.8,167.5z M40.2,166.8v-2.7c0-0.7,0.7-1.3,1.1-1.3
	c0,0,2.5,0.2,4.3,0.2s4-0.2,4-0.2c0.4,0,0.6,0.6,0.6,1.3v2.7H40.2z M42.2,161.8v-2.1c0-0.7,0.3-1.3,0.7-1.3c0,0,2.3,0.2,4.1,0.2
	s3.8-0.2,3.8-0.2c0.4,0,0.4,0.6,0.4,1.3v2.1H42.2z M50.2,168.8L50.2,168.8c0-0.7,0.6-1.3,1-1.3c0,0,2.5,0.2,4.3,0.2s4-0.2,4-0.2
	c0.4,0,0.7,0.6,0.7,1.3v2h-10V168.8z M51.2,166.8v-2.7c0-0.7,0.9-1.3,1.3-1.3c0,0,2.7,0.2,4.5,0.2s3.8-0.2,3.8-0.2
	c0.4,0,0.4,0.6,0.4,1.3v2.7H51.2z M53.2,161.8v-2.1c0-0.7,0.5-1.3,0.9-1.3c0,0,2.5,0.2,4.3,0.2c1.8,0,4.1-0.2,4.1-0.2
	c0.4,0,0.7,0.6,0.7,1.3v2.1H53.2z M61.7,169c0-0.7,0.7-1.4,1.1-1.4c0,0,2.6,0.1,4.4,0.1s4.2-0.2,4.2-0.2c0.4,0,0.8,0.6,0.8,1.3v3
	H61.6L61.7,169z M63.2,166.8v-2.3c0-0.7,0.6-1.3,1-1.3c0,0,2.5,0.2,4.4,0.2s4-0.2,4-0.2c0.4,0,0.6,0.6,0.6,1.3v2.3H63.2z
	 M64.2,161.8v-1.7c0-0.7,0.8-1.3,1.2-1.3c0,0,2.5,0.2,4.3,0.2s4.1-0.2,4.1-0.2c0.4,0,0.5,0.6,0.5,1.3v1.7H64.2z M73.2,168.8
	c0-0.7,0.6-1.3,1-1.3c0,0,2.6,0.2,4.3,0.2s4-0.2,4-0.2c0.4,0,0.7,0.6,0.7,1.3v3h-10V168.8z M74.2,166.8v-2.3c0-0.7,0.8-1.3,1.3-1.3
	c0,0,2.7,0.2,4.5,0.2s3.8-0.2,3.8-0.2c0.4,0,0.5,0.6,0.5,1.3v2.3H74.2z M96.7,158.8c0.4,0,0.5,0.6,0.5,1.3v1.7h-10v-1.7
	c0-0.7,0.6-1.3,1.1-1.3c0,0,2.5,0.2,4.2,0.2C94.4,159.1,96.7,158.8,96.7,158.8z M96.2,157.8v-2.2c0-0.7,0.8-1.3,1.3-1.3
	c0,0,2.7,0.2,4.4,0.2s3.9-0.2,3.9-0.2c0.4,0,0.5,0.6,0.5,1.3v2.2H96.2z M95.3,157.8H85.2v-2.2c0-0.7,0.5-1.3,1-1.3
	c0,0,2.6,0.2,4.4,0.2c1.8,0,4.1-0.2,4.1-0.2c0.4,0,0.7,0.7,0.7,1.4L95.3,157.8z M85.5,158.8c0.4,0,0.7,0.6,0.7,1.3v1.7h-10v-1.7
	c0-0.7,0.4-1.3,0.9-1.3c0,0,2.4,0.2,4.2,0.2C83,159.1,85.5,158.8,85.5,158.8z M84.2,168.8c0-0.7,0.7-1.3,1.2-1.3
	c0,0,2.6,0.2,4.4,0.2s4.3-0.2,4.3-0.2c0.4,0,1,0.6,1,1.3v3h-11V168.8z M86.2,166.8v-2.3c0-0.7,0.5-1.3,1-1.3c0,0,2.5,0.2,4.4,0.2
	s4-0.2,4-0.2c0.4,0,0.6,0.6,0.6,1.3v2.3H86.2z M97.2,166.8v-2.3c0-0.7,0.8-1.3,1.3-1.3c0,0,2.7,0.2,4.4,0.2s3.9-0.2,3.9-0.2
	c0.4,0,0.5,0.6,0.5,1.3v2.3H97.2z M98.2,161.8v-1.7c0-0.7,0.9-1.3,1.4-1.3c0,0,2.7,0.2,4.4,0.2s4.5-0.2,4.5-0.2
	c0.4,0,0.7,0.6,0.7,1.3v1.7H98.2z M108.2,157.8v-2.6c0-0.7,0.5-1.3,1-1.3c0,0,2.5,0.2,4.2,0.2c1.8,0,4.2-0.2,4.2-0.2
	c0.4,0,0.7,0.6,0.7,1.3v2.6H108.2z M108.5,167.5c0,0,2.4,0.2,4.2,0.2c1.8,0,3.9-0.2,3.9-0.2c0.4,0,0.6,0.6,0.6,1.3v2h-9.5l-0.1-2.3
	C107.6,167.9,108,167.5,108.5,167.5z M109.2,166.8v-2.7c0-0.7,0.4-1.3,0.9-1.3c0,0,2.5,0.2,4.1,0.2s3.7-0.2,3.7-0.2
	c0.4,0,0.2,0.6,0.2,1.3v2.7H109.2z M110.2,161.8v-2c0-0.7,0.6-1.3,1.1-1.3c0,0,2.5,0.2,4.2,0.2s4.2-0.2,4.2-0.2
	c0.4,0,0.6,0.6,0.6,1.3v2H110.2z M119.2,157.8v-2.6c0-0.7,0.5-1.3,1-1.3c0,0,2.6,0.2,4.4,0.2s3.9-0.2,3.9-0.2c0.4,0,0.6,0.6,0.6,1.3
	v2.6H119.2z M118.7,168.6c0-0.7,0.6-1.2,1-1.2c0,0,2.6,0.3,4.3,0.3c1.7,0,4.3-0.2,4.3-0.2c0.4,0,0.9,0.6,0.9,1.3v2h-10.6
	L118.7,168.6z M120.2,166.8v-2.7c0-0.7,0.5-1.3,1-1.3c0,0,2.5,0.2,4.4,0.2s4-0.2,4-0.2c0.4,0,0.7,0.6,0.7,1.3v2.7H120.2z
	 M121.2,161.8v-2.1c0-0.7,0.7-1.3,1.2-1.3c0,0,2.6,0.2,4.4,0.2s3.9-0.2,3.9-0.2c0.4,0,0.6,0.6,0.6,1.3v2.1H121.2z M130.2,157.8v-2.6
	c0-0.7,0.9-1.3,1.3-1.3c0,0,2.7,0.2,4.5,0.2s3.8-0.2,3.8-0.2c0.4,0,0.4,0.6,0.4,1.3v2.6H130.2z M132.8,159.6c0-0.7,0.9-1.3,1.8-1.3
	c0,0,5.2,0.2,8.9,0.2c3.7,0,8.4-0.2,8.4-0.2c0.9,0,1.2,0.6,1.2,1.3v2.1h-20.5L132.8,159.6z M142.2,157.8v-2.6c0-0.7,0.6-1.3,1-1.3
	c0,0,2.6,0.2,4.4,0.2s4-0.2,4-0.2c0.4,0,0.6,0.6,0.6,1.3v2.6H142.2z M80.7,122.8H134l-8,7H73.8L80.7,122.8z M73.2,155.6
	c0-0.7,0.8-1.3,1.3-1.3c0,0,2.7,0.2,4.5,0.2c1.8,0,4.2-0.2,4.2-0.2c0.4,0,1,0.6,1,1.3v2.2h-11V155.6z M63.2,154.4
	c0,0,2.6,0.1,4.4,0.1c1.8,0,4-0.2,4-0.2c0.4,0,0.6,0.6,0.6,1.3v2.2h-10v-2h-0.1C62.1,154.8,62.8,154.4,63.2,154.4z M50.2,154.8h0.4
	c0,0,0.7-1.1,1.1-1.1c0,0,2.6,0.3,4.4,0.3c1.8,0,3.8-0.1,3.8-0.1c0.4,0,0.3,0.7,0.3,1.4v2.5h-10V154.8z M39.2,155.3
	c0-0.7,0.7-1.3,1.1-1.3c0,0,2.5,0.2,4.3,0.2s4-0.2,4-0.2c0.4,0,0.6,0.6,0.6,1.3v2.5h-10V155.3z M29.1,153.8c0,0,2.6,0.3,4.3,0.3
	s4.1-0.1,4.1-0.1c0.4,0,0.7,0.7,0.7,1.4v2.5h-10v-3h-0.1C28.1,154.8,28.7,153.8,29.1,153.8z M16.2,155.3c0-0.7,0.8-1.3,1.3-1.3
	c0,0,2.7,0.2,4.4,0.2s4.3-0.2,4.3-0.2c0.4,0,1,0.6,1,1.3v2.5h-11V155.3z M16.2,158.4c0,0,3.6,0.2,6.1,0.2s5.9-0.2,5.9-0.2
	c0.6,0,1,0.6,1,1.3v2.1H14.9l-0.1-2.2C14.8,158.9,15.5,158.4,16.2,158.4z M14.9,162.8c0,0,3.6,0.2,6.1,0.2s5.5-0.2,5.5-0.2
	c0.6,0,0.6,0.6,0.6,1.3v2.7H13.6l-0.1-2.8C13.5,163.4,14.2,162.8,14.9,162.8z M26.2,170.8h-14v-2c0-0.7,0.5-1.3,1.1-1.3
	c0,0,3.5,0.2,5.9,0.2c2.5,0,5.9-0.2,5.9-0.2c0.6,0,1.1,0.6,1.1,1.3V170.8z M27.2,168.8L27.2,168.8c0-0.7,0.6-1.3,1.1-1.3
	c0,0,2.6,0.2,4.3,0.2c1.8,0,4-0.2,4-0.2c0.4,0,0.6,0.6,0.6,1.3v2h-10V168.8z M44.2,178.8h-16v-5.6c0-0.7,0.9-1.3,1.6-1.3
	c0,0,4.1,0.2,7,0.2s6.5-0.2,6.5-0.2c0.7,0,0.9,0.6,0.9,1.3V178.8z M114.2,173.2v5.6h-68v-5.6c0-0.7,0.4-1.3,3.4-1.3
	c0,0,19,0.7,31.1,0.7s30.7-0.7,30.7-0.7C114.4,171.9,114.2,172.5,114.2,173.2z M132.2,178.8h-16v-5.6c0-0.7,0.8-1.3,1.5-1.3
	c0,0,4.1,0.2,6.9,0.2c2.9,0,6.6-0.2,6.6-0.2c0.7,0,1.1,0.6,1.1,1.3V178.8z M144.2,170.8h-14v-2c0-0.7,0.7-1.3,1.3-1.3
	c0,0,3.5,0.2,6,0.2s5.7-0.2,5.7-0.2c0.6,0,0.9,0.6,0.9,1.3V170.8z M131.2,166.8v-2.7c0-0.7,1.1-1.3,2-1.3c0,0,5.3,0.2,9,0.2
	s8.6-0.2,8.6-0.2c0.9,0,1.4,0.6,1.4,1.3l0.1,2.8H131.2z M153.2,166.8v-2.7c0-0.7,0.8-1.3,1.3-1.3c0,0,2.7,0.2,4.5,0.2s4-0.2,4-0.2
	c0.4,0,0.6,0.6,0.6,1.3l0.1,2.8H153.2z M155.2,161.8v-2.1c0-0.7,0.5-1.3,1-1.3c0,0,2.5,0.2,4.3,0.2s4-0.2,4-0.2
	c0.4,0,0.6,0.5,0.6,1.2l0.1,2.2H155.2z M168.2,157.8h-0.5h-14.5v-2.6c0-0.7,0.9-1.3,1.6-1.3c0,0,3.7,0.2,6.2,0.2s6-0.2,6-0.2
	c0.6,0,1.1,0.6,1.1,1.3V157.8z M174.2,166.8v-2.2c0-0.7,0.9-1.3,1.3-1.3c0,0,2.9,0.2,4.8,0.2s4.5-0.2,4.5-0.2c0.5,0,0.9,0.6,0.9,1.3
	l0.1,2.3H174.2z M175.2,162.8v-2.6c0-0.7,0.8-1.3,1.2-1.3c0,0,2.7,0.2,4.4,0.2s4.2-0.2,4.2-0.2c0.4,0,0.7,0.8,0.7,1.5l0.1,2.5H175.2
	z M186.2,157.8h-10v-2.1c0-0.7,0.6-1.3,1-1.3c0,0,2.5,0.2,4.1,0.2c1.7,0,4.1-0.2,4.1-0.2c0.4,0,0.9,0.6,0.9,1.3V157.8z M198.6,166.8
	h-11.4v-2.2c0-0.7,0.8-1.3,1.3-1.3c0,0,2.9,0.2,4.8,0.2c1.9,0,4.5-0.2,4.5-0.2c0.5,0,0.8,0.6,0.8,1.3L198.6,166.8z M199.1,160.4
	c0-0.7,0.7-1.4,1.1-1.4c0,0,2.7,0.2,4.4,0.2c1.8,0,4-0.2,4-0.2c0.4,0,0.6,0.6,0.6,1.3v2.6H199L199.1,160.4z M211,166.8h-10.8v-2.2
	c0-0.7,0.6-1.3,1.1-1.3c0,0,2.9,0.2,4.8,0.2s4.4-0.2,4.4-0.2c0.5,0,0.7,0.6,0.7,1.3L211,166.8z M270.2,164.7v2.1h-11v-2.1
	c0-0.7,0.8-1.3,1.3-1.3c0,0,2.7,0.2,4.5,0.2s4.3-0.2,4.3-0.2C269.6,163.4,270.2,164,270.2,164.7z M236.2,164.7c0-0.7,0.6-1.3,1-1.3
	c0,0,2.6,0.2,4.3,0.2c1.8,0,4-0.2,4-0.2c0.4,0,0.6,0.6,0.6,1.3v2.1h-10V164.7z M234.2,162.8V160c0-0.7,0.5-1.3,0.9-1.3
	c0,0,2.5,0.2,4.3,0.2s4.1-0.2,4.1-0.2c0.5,0,0.8,0.6,0.8,1.3v2.8H234.2z M238.4,169.5c0-0.7,0.6-1.3,1-1.3c0,0,2.6,0.2,4.3,0.2
	s3.9-0.2,3.9-0.2c0.4,0,0.5,0.6,0.5,1.3v2.3h-9.9L238.4,169.5z M247.2,166.8v-2.1c0-0.7,0.9-1.3,1.3-1.3c0,0,2.8,0.2,4.5,0.2
	c1.8,0,4.3-0.2,4.3-0.2c0.4,0,0.9,0.6,0.9,1.3v2.1H247.2z M249.9,169.5c0-0.7,0.7-1.3,1.1-1.3c0,0,2.7,0.2,4.4,0.2
	c1.8,0,4.1-0.2,4.1-0.2c0.4,0,0.7,0.6,0.7,1.3v2.3h-10.4L249.9,169.5z M267.2,160v2.8h-10V160c0-0.7,0.7-1.3,1.2-1.3
	c0,0,2.7,0.2,4.5,0.2s3.9-0.2,3.9-0.2C267.1,158.7,267.2,159.3,267.2,160z M255.2,155.3L255.2,155.3c0-0.6,0.6-1.3,1.1-1.3
	c0,0,2.6,0.2,4.4,0.2s4-0.2,4-0.2c0.4,0,0.5,0.6,0.5,1.3v2.5h-10V155.3z M255.2,160v2.8h-10V160c0-0.7,0.8-1.3,1.2-1.3
	c0,0,2.8,0.2,4.5,0.2c1.7,0,3.8-0.2,3.8-0.2C255.3,158.7,255.2,159.3,255.2,160z M243.3,155.4c0-0.7,0.7-1.4,1.1-1.4
	c0,0,2.7,0.2,4.4,0.2s3.9-0.2,3.9-0.2c0.4,0,0.5,0.6,0.5,1.3v2.5h-10L243.3,155.4z M231.8,155.4c0-0.7,0.6-1.4,1-1.4
	c0,0,2.6,0.2,4.3,0.2c1.7,0,4.2-0.2,4.2-0.2c0.4,0,0.8,0.6,0.8,1.3v2.5h-10.5L231.8,155.4z M219.9,155.4c0-0.7,0.6-1.4,1-1.4
	c0,0,2.6,0.2,4.3,0.2s4.2-0.2,4.2-0.2c0.4,0,0.8,0.6,0.8,1.3v2.5h-10.4L219.9,155.4z M222.1,160.2c0-0.7,0.6-1.4,1-1.4
	c0,0,2.6,0.1,4.3,0.1c1.7,0,4.1-0.2,4.1-0.2c0.4,0,0.7,0.6,0.7,1.3v2.8H222L222.1,160.2z M224.3,164.7c0-0.7,0.6-1.3,1-1.3
	c0,0,2.6,0.2,4.3,0.2c1.8,0,4-0.2,4-0.2c0.4,0,0.6,0.6,0.6,1.3v2h-10L224.3,164.7z M226.5,169.5c0-0.7,0.6-1.3,1-1.3
	c0,0,2.6,0.2,4.3,0.2s3.9-0.2,3.9-0.2c0.4,0,0.5,0.6,0.5,1.3v2.3h-9.8L226.5,169.5z M250.3,178.8h-22.1v-4.9c0-0.7,0.8-1.3,1.8-1.3
	c0,0,5.5,0.2,9.5,0.2s9.3-0.2,9.3-0.2c1,0,1.7,0.4,1.7,1.1L250.3,178.8z M261.8,178.8h-9.6v-4.9c0-0.7,0.5-1.3,1-1.3
	c0,0,2.5,0.2,4.3,0.2c1.7,0,3.9-0.2,3.9-0.2c0.4,0,0.6,0.4,0.6,1.1L261.8,178.8z M262.2,169.4c0-0.7,0.4-1.3,0.9-1.3
	c0,0,2.5,0.2,4.1,0.2c1.8,0,4.3-0.2,4.3-0.2c0.4,0,0.7,0.6,0.7,1.3v2.4h-10V169.4z M273.2,173.9v4.9h-9v-4.9c0-0.7,0.4-1.3,0.9-1.3
	c0,0,2.4,0.2,4,0.2c1.8,0,3.8-0.2,3.8-0.2C273.4,172.6,273.2,173.2,273.2,173.9z"/>
</svg>
