<?xml version="1.0" encoding="utf-8"?>
<!-- Generator: Adobe Illustrator 18.1.1, SVG Export Plug-In . SVG Version: 6.00 Build 0)  -->
<svg version="1.1" id="Layer_1" xmlns="http://www.w3.org/2000/svg" xmlns:xlink="http://www.w3.org/1999/xlink" x="0px" y="0px"
	 viewBox="0 0 385.2 401.3" enable-background="new 0 0 385.2 401.3" xml:space="preserve">
<path opacity="0.32" fill="#ED2E7A" enable-background="new    " d="M363,249.8c0.9,0,1.6-0.8,1.6-1.7V24.8c0-0.9-0.7-1.7-1.6-1.7
	H22.4c-0.9,0-1.6,0.8-1.6,1.7v223.3c0,0.9,0.7,1.7,1.6,1.7H363z"/>
<path opacity="0.64" fill="#ED2E7A" enable-background="new    " d="M364.5,248.1c0,0.9-0.7,1.7-1.6,1.7H22.4
	c-0.9,0-1.6-0.8-1.6-1.7V24.8c0-0.9,0.7-1.7,1.6-1.7H363c0.9,0,1.6,0.8,1.6,1.7L364.5,248.1L364.5,248.1z M194.2,280.8
	c0-1.7,0.7-3.2,1.8-4.4c1-1,2.2-1.7,3.6-1.9c0.5,3.1-2,6.5-4.9,6.8C194.3,281.4,194.2,281.2,194.2,280.8 M197.7,281.7
	c2.9-1.2,5.6-0.3,7.6,2.3c-4.4,2.8-3.6,9.3,0.8,11.4c-1.1,2.6-2.3,5-4.5,6.8c-1,0.9-2.2,1-3.4,0.4c-2.1-1.1-4-1.1-6.1,0
	c-1.5,0.8-2.9,0.4-4.1-0.8c-2.1-2.1-3.4-4.8-4.2-7.7c-0.6-2.3-0.8-4.5-0.3-6.9c0.7-3.1,3.1-5.5,6-5.9c0.9-0.1,2,0.1,2.8,0.5
	C194.2,282.5,195.9,282.5,197.7,281.7 M190.2,6.7c0-0.2,0.1-0.4,0.3-0.4h5.3c0.2,0,0.3,0.2,0.3,0.4v5.6c0,0.2-0.1,0.4-0.3,0.4h-5.3
	c-0.2,0-0.3-0.2-0.3-0.4V6.7z M367.5,0h-350C7.7,0,0,8.7,0,19v300.6c0,10.4,7.7,18.5,17.5,18.5h130.1c-0.2,7.4-0.3,15.1-1.8,20.9
	c-5.4,22.1-9.6,24-17.1,28c-3.1,1.6-6.6,3.7-10.3,4.6c-0.8,0.2-1.4,1-0.9,1.7v2.8c0,1.8,1.3,3.2,3,3.2c48.8,2.7,96.7,2.7,143.5,0
	c1.7,0,3.1-1.5,3.1-3.2v-3V393v-0.2H267c-0.1-0.5-0.4-1-1-1.1c-3.7-1-7.3-3-10.4-4.6c-7.5-3.9-11.6-6-17.1-28.1
	c-1.4-5.7-1.6-13.5-1.8-20.9h130.6c9.8,0,17.9-8.1,17.9-18.5V19.1C385.4,8.7,377.3,0,367.5,0"/>
</svg>
