<?xml version="1.0" encoding="utf-8"?>
<!-- Generator: Adobe Illustrator 18.1.1, SVG Export Plug-In . SVG Version: 6.00 Build 0)  -->
<svg version="1.1" id="Layer_1" xmlns="http://www.w3.org/2000/svg" xmlns:xlink="http://www.w3.org/1999/xlink" x="0px" y="0px"
	 viewBox="0 0 331.6 286.1" enable-background="new 0 0 331.6 286.1" xml:space="preserve">
<rect x="117.9" y="44.3" opacity="0.63" fill="#219E97" enable-background="new    " width="160.1" height="114.8"/>
<path fill="#219E97" d="M292.3,22.8c0,0-70.6-1-94.2-1c-23.7-0.1-95,1-95,1c-1.3,0-2.4,0.9-2.4,2.1l-0.1,153.4
	c0,1.2,1.2,2.3,2.4,2.3c0,0,13.3-0.5,30.4,0.5h-2.1v4h30.7c2.7,2,6.1,3.7,10.1,5c-0.8,0.4-1.4,1-1.6,2h-38.1c-0.7,0-1.1,0.9-1.1,1.7
	v8.3h130v-8.3c0-0.6-0.8-1.7-1.5-1.7h-33c-0.3,0-1.2-1.9-2.4-2.3c3.6-1.4,6.7-2.7,9.2-4.7h27.7v-4.3c17-0.2,31.1-0.4,31.1-0.4
	c1.3,0,1.9-0.9,1.9-2.1V24.9C294.4,23.7,293.5,22.8,292.3,22.8z M158.7,184.1h-4.6c-0.4,0-0.7-0.6-0.7-1c0-0.4,0.3-1,0.7-1h4.6
	c0.4,0,0.7,0.6,0.7,1C159.4,183.5,159.1,184.1,158.7,184.1z M167.6,184.1H163c-0.4,0-0.7-0.6-0.7-1c0-0.4,0.3-1,0.7-1h4.6
	c0.4,0,0.7,0.6,0.7,1C168.3,183.5,168,184.1,167.6,184.1z M176.4,184.1h-4.6c-0.4,0-0.7-0.6-0.7-1c0-0.4,0.3-1,0.7-1h4.6
	c0.4,0,0.7,0.6,0.7,1C177.1,183.5,176.8,184.1,176.4,184.1z M277.4,158.1h-159v-113h159V158.1z"/>
<path fill="#219E97" d="M166.9,21.1h61.9c0.3,0,0.6,0.2,0.6-0.1V1.3c0-0.3-0.3-0.2-0.6-0.2h-2.4V16c0,0.2-0.2,1.1-0.4,1.1h-55.8
	c-0.3,0,0.2-0.9,0.2-1.1V1.1h-3.5c-0.3,0-0.5-0.1-0.5,0.2V21C166.4,21.2,166.6,21.1,166.9,21.1z"/>
<path fill="#219E97" d="M171.4,0.1v15.5c0,0.2,0,0.5,0,0.5H225c0.2,0,0.4-0.3,0.4-0.5V0.1c0-0.2,0,0,0,0 M198.4,5
	c1.5,0,2.8,1.2,2.7,2.6c0,1.4-1.2,2.6-2.7,2.6s-2.7-1.1-2.7-2.6C195.7,6.2,196.9,5,198.4,5z"/>
<path fill="#219E97" d="M233.7,224h43.2l0,0v-0.4h-43.2V224z M233.7,226.2h43.1v-0.4h-43.1V226.2z M233.7,228.4h43.1V228h-43.1
	V228.4z M233.7,230.5h43.1v-0.9h-43.1V230.5z M279.1,219.3H236v0.4h43.1V219.3z M279.1,217.1H236v0.9h43.1V217.1z M279.1,215.3H236
	v0.4h43.1V215.3z M279.1,213.2H236v0.4h43.1V213.2z M255.6,206.7h-4c-0.1,0-0.2,0.1-0.1,0.2l2,2.9c0,0.1,0.2,0.1,0.2,0l2-2.9
	C255.8,206.8,255.7,206.7,255.6,206.7 M250.8,208.7l-2-2.9c0-0.1-0.2-0.1-0.2,0l-2,2.9c-0.1,0.1,0,0.2,0.1,0.2h4
	C250.8,208.8,250.8,208.7,250.8,208.7 M242.3,221.4H236v0.4h12.2h1.6h9.3h20.1v-0.4h-27.6l-141.2-10v-9.1h171V224h-1.5l-0.2,9.1
	H108.1v-21.2L242.3,221.4z"/>
<path fill="#219E97" d="M50.1,283.1c0.3,2,2.1,3,4.2,3h272.6c2.2,0,4.4-1,4.7-3H50.1z"/>
<path fill="#219E97" d="M50.4,277c-0.2,0.3-0.4,0.6-0.4,0.9c-0.3,1.3-0.6,2.8-0.6,3.8v0.4H53h273.6h4.8c0,0,0-0.3,0-0.4
	c0-1.4-0.2-3.6-0.5-5.4l-18-40.4c-0.4-1.4-1.6-1.8-2.8-1.8h-197h-2.7H92.5h-23c-1.1,0-2.1,0.8-2.6,2l-1.2,2.5l-0.2,0.7
	c-3.1-0.7-9.7-1.8-12.5,0c-2.3,1.6-0.5,4.6-0.2,7.3c0.3,3-1.1,2.6-3.2,2.6l0.1-3.9c0-0.4-0.3-0.9-0.8-1c-3.8-1.2-20.2-6-26.5-5.3
	c-6,0.7-18.7,5-21.9,9.9l-0.5,6c0,5.6,5.2,9.3,11.1,9.3c0,0,19,1.8,25.3-5.6c2-2.4,8.7-5,11.6-6c0.8-0.3,1.3-0.9,1.4-1.7
	c3.3,0,5.2-1,4.9-4.5c-0.2-2.4-2-4.8-0.5-5.8c2-1.4,7.8-0.5,11.1,0.2l-1.3,3.7L50.4,277z M177.4,259.1h-9.7l0.1-3
	c0-0.8,0.3-1.6,0.7-1.6c0,0,2.3,0.2,4.1,0.2c1.7,0,4.1-0.3,4.1-0.3c0.4,0,0.6,0.7,0.6,1.5V259.1z M166.3,253.1l0.1-2.3
	c0-0.8,0.4-1.5,0.8-1.5c0,0,2.5,0.3,4.2,0.3s4.2-0.3,4.2-0.3c0.4,0,0.8,0.7,0.8,1.5v2.3H166.3z M186.4,264.1v-2.6
	c0-0.8,0.8-1.5,1.4-1.5c0,0,3.6,0.3,6.1,0.3s5.7-0.3,5.7-0.3c0.7,0,0.8,0.7,0.8,1.5v2.6h-13.5H186.4z M179.4,259.1v-3.2
	c0-0.8,0.5-1.5,1.5-1.5c0,0,4.9,0.3,8.6,0.3s8.5-0.3,8.5-0.3c0.9,0,1.4,0.7,1.4,1.5v3.2H179.4z M222.4,259.1h-10v-3.2
	c0-0.8,0.4-1.5,0.8-1.5c0,0,2.6,0.3,4.3,0.3s4.1-0.3,4.1-0.3c0.5,0,0.9,0.7,0.9,1.5V259.1z M222.9,260.3c0.5,0,0.6,0.8,0.6,1.8h-0.1
	v2h-10v-2.5c0-0.8,0.6-1.5,1.1-1.5c0,0,2.6,0.4,4.4,0.4C220.6,260.5,222.9,260.3,222.9,260.3z M220.4,253.1h-9v-2.3
	c0-0.8,0.3-1.5,0.7-1.5c0,0,2.4,0.3,4.1,0.3c1.7,0,3.8-0.3,3.8-0.3c0.4,0,0.4,0.7,0.4,1.5V253.1z M211.8,260.3
	c0.4,0,0.7,0.8,0.7,1.8h-0.1v2h-10v-2.5c0-0.8,0.6-1.5,1-1.5c0,0,2.4,0.4,4.2,0.4S211.8,260.3,211.8,260.3z M211.4,259.1h-11v-3.2
	c0-0.8,0.7-1.5,1.1-1.5c0,0,2.8,0.3,4.5,0.3s4.3-0.3,4.3-0.3c0.5,0,1,0.7,1,1.5V259.1z M215.4,273.1h-16v-6.3c0-0.8,0.5-1.5,1.2-1.5
	c0,0,3.8,0.3,6.7,0.3c2.8,0,6.8-0.3,6.8-0.3c0.7,0,1.3,0.7,1.3,1.5V273.1z M285.4,273.1h-69v-6.3c0-0.8,0.4-1.5,3.4-1.5
	c0,0,19.1,0.8,31.1,0.8c12.1,0,31.1-0.8,31.1-0.8c3,0,3.4,0.7,3.4,1.5V273.1z M245.4,259.1h-10v-2.8c0-0.8,0.2-1.5,0.6-1.5
	c0,0,2.3,0.3,4.1,0.3c1.7,0,4.3-0.3,4.3-0.3c0.5,0,1,0.7,1,1.5V259.1z M245.6,260c0.4,0,0.7,0.7,0.7,1.5v2.6h-10v-2.6
	c0-0.8,0.5-1.5,0.9-1.5c0,0,2.4,0.3,4.2,0.3S245.6,260,245.6,260z M243.4,253.1h-10v-1.9c0-0.8,0.6-1.5,1-1.5c0,0,2.6,0.3,4.3,0.3
	s4-0.3,4-0.3c0.4,0,0.6,0.6,0.6,1.5V253.1z M234.2,260c0.4,0,0.9,0.8,0.9,1.6l-0.1,2.6h-10.6v-2.6c0-0.8,0.6-1.5,1.1-1.5
	c0,0,2.6,0.3,4.4,0.3S234.2,260,234.2,260z M233.4,259.1h-10v-2.8c0-0.8,0.5-1.5,1-1.5c0,0,2.6,0.3,4.3,0.3s4.1-0.3,4.1-0.3
	c0.4,0,0.7,0.7,0.7,1.5V259.1z M279.4,259.1h-10v-3.2c0-0.8,0.3-1.5,0.7-1.5c0,0,2.4,0.3,4.2,0.3s4.3-0.3,4.3-0.3
	c0.4,0,0.8,0.7,0.8,1.5V259.1z M279.7,260.1c0.5,0,0.6,0.7,0.6,1.5v2.5h-10v-2.5c0-0.8,0.6-1.5,1-1.5c0,0,2.5,0.3,4.2,0.3
	S279.7,260.1,279.7,260.1z M278.4,253.1h-10v-2.3c0-0.8,0.2-1.5,0.6-1.5c0,0,2.3,0.3,4,0.3s4.4-0.3,4.4-0.3c0.4,0,1,0.7,1,1.5V253.1
	z M268.5,260c0.4,0,0.9,0.7,0.9,1.5v2.6h-11v-2.6c0-0.8,0.8-1.5,1.2-1.5c0,0,2.8,0.3,4.5,0.3S268.5,260,268.5,260z M268.4,259.1h-10
	v-2.8c0-0.8,0.2-1.5,0.6-1.5c0,0,2.2,0.3,4,0.3s4.4-0.3,4.4-0.3c0.4,0,1,0.7,1,1.5V259.1z M266.4,253.1h-10v-1.9
	c0-0.8,0.4-1.5,0.9-1.5c0,0,2.5,0.3,4.3,0.3s4.1-0.3,4.1-0.3c0.4,0,0.7,0.6,0.7,1.5V253.1z M258.4,261.5v2.6h-11v-2.6
	c0-0.8,0.6-1.5,1-1.5c0,0,2.7,0.3,4.4,0.3s4.4-0.3,4.4-0.3C257.7,260,258.4,260.7,258.4,261.5z M256.4,256.3v2.8h-10v-2.8
	c0-0.8,0.4-1.5,0.8-1.5c0,0,2.3,0.3,4.1,0.3s4.3-0.3,4.3-0.3C256.1,254.8,256.4,255.5,256.4,256.3z M300.4,253.1h-10v-2.3
	c0-0.8,0.4-1.5,0.9-1.5c0,0,2.5,0.3,4.3,0.3c1.7,0,4.1-0.3,4.1-0.3c0.5,0,0.8,0.7,0.8,1.5V253.1z M301.3,254.4
	c0.4,0,1.1,0.7,1.1,1.5v3.2h-11v-3.2c0-0.8,0.7-1.5,1.1-1.5c0,0,2.5,0.3,4.3,0.3C298.5,254.7,301.3,254.4,301.3,254.4z M291.4,261.6
	v2.5h-9v-2.5c0-0.8,0.3-1.5,0.7-1.5c0,0,2.2,0.3,4,0.3s3.9-0.3,3.9-0.3C291.4,260.1,291.4,260.8,291.4,261.6z M290.4,255.9v3.2h-9
	v-3.2c0-0.8,0-1.5,0.4-1.5c0,0,2.1,0.3,3.9,0.3s4.1-0.3,4.1-0.3C290.2,254.4,290.4,255.1,290.4,255.9z M302.4,273.1h-16h0v-6.3
	c0-0.8,0.5-1.5,1.2-1.5c0,0,3.9,0.3,6.7,0.3c2.9,0,6.9-0.3,6.9-0.3c0.7,0,1.3,0.7,1.3,1.5V273.1z M303.4,262.1v2h-10v-2.5
	c0-0.8,0.5-1.5,0.9-1.5c0,0,2.4,0.3,4.2,0.3s4.2,0,4.2,0C303.1,260.3,303.4,261.1,303.4,262.1L303.4,262.1z M319.4,261.5v2.6h-14
	v-2.6c0-0.8,0.3-1.5,0.9-1.5c0,0,3.3,0.3,5.8,0.3s6.1-0.3,6.1-0.3C318.7,260,319.4,260.7,319.4,261.5z M317.5,256.1h-0.1v3h-15v-3.2
	c0-0.8,1-1.5,1.6-1.5c0,0,3.7,0.3,6.2,0.3s6-0.2,6-0.2C316.8,254.5,317.5,255.1,317.5,256.1z M304.4,245.4c0-0.8,0.2-1.5,0.6-1.5
	c0,0,2.3,0.3,4,0.3s4.2-0.4,4.2-0.4c0.4,0,0.7,1.4,0.7,1.4h-0.5v3h-9V245.4z M308.7,249.5c2.5,0,5.8-0.3,5.8-0.3
	c0.7,0,0.9,0.7,0.9,1.5v2.4h-14v-2.4c0-0.8,0.7-1.5,1.3-1.5C302.6,249.2,306.2,249.5,308.7,249.5z M292.4,245.4c0-0.8,0.6-1.5,1-1.5
	c0,0,2.6,0.3,4.3,0.3s4.1-0.3,4.1-0.3c0.4,0,0.7,0.8,0.7,1.6l0.1,2.6h-10.2V245.4z M281.4,245.4c0-0.8,0.5-1.5,0.9-1.5
	c0,0,2.5,0.3,4.2,0.3s4.1-0.3,4.1-0.3c0.5,0,0.8,0.8,0.8,1.6l-0.1,2.6h-10V245.4z M284.4,249.6c1.8,0,4.2-0.3,4.2-0.3
	c0.4,0,0.8,0.7,0.8,1.5v2.3h-10v-2.3c0-0.8,0.4-1.5,0.8-1.5C280.2,249.3,282.6,249.6,284.4,249.6z M270.4,245.4
	c0-0.8,0.3-1.5,0.7-1.5c0,0,2.2,0.3,4,0.3s4.4-0.3,4.4-0.3c0.4,0,0.9,0.7,0.9,1.5v2.7h-10V245.4z M259.4,245.8
	c0-0.8,0.1-1.5,0.5-1.5c0,0,2.2,0.3,4,0.3s4.3-0.3,4.3-0.3c0.4,0,0.9,0.9,0.9,1.7l0.1,2.2h-9.7V245.8z M246.4,245.8
	c0-0.8,0.8-1.5,1.3-1.5c0,0,2.7,0.3,4.5,0.3s4.4-0.3,4.4-0.3c0.4,0,0.9,0.9,0.9,1.7l-0.1,2.2h-11V245.8z M250,250
	c1.8,0,4.4-0.3,4.4-0.3c0.5,0,1,0.6,1,1.5v1.9h-10v-1.9c0-0.8,0.2-1.5,0.6-1.5C246,249.7,248.2,250,250,250z M236.4,245.8
	c0-0.8,0.1-1.5,0.5-1.5c0,0,2.3,0.3,4,0.3c1.7,0,3.9-0.3,3.9-0.3c0.5,0,0.5,0.7,0.5,1.5v2.3h-9V245.8z M224.4,245.8
	c0-0.8,0.4-1.5,0.9-1.5c0,0,2.6,0.3,4.3,0.3s4.2-0.1,4.2-0.1c0.5,0,0.8,0.7,0.8,1.7h-0.1v2h-10V245.8z M227.2,250
	c1.8,0,3.8-0.3,3.8-0.3c0.4,0,0.3,0.6,0.3,1.5v1.9h-9v-1.9c0-0.8,0.4-1.5,0.8-1.5C223.1,249.7,225.4,250,227.2,250z M213.4,245.4
	c0-0.8,0.3-1.5,0.7-1.5c0,0,2.4,0.3,4.1,0.3c1.7,0,4.1-0.3,4.1-0.3c0.5,0,0.8,0.8,0.8,1.6l-0.1,2.6h-9.6V245.4z M201.4,245.4
	c0-0.8,0.6-1.5,1.1-1.5c0,0,2.5,0.3,4.3,0.3s4.4-0.3,4.4-0.3c0.5,0,0.9,0.8,0.9,1.6l-0.1,2.6h-10.6V245.4z M200.4,249.3
	c0,0,2.5,0.3,4.3,0.3c1.7,0,4-0.3,4-0.3c0.4,0,0.6,0.7,0.6,1.5v2.3h-10v-2.3C199.4,250,200,249.3,200.4,249.3z M190.4,245.4
	c0-0.8,0.4-1.5,0.8-1.5c0,0,2.4,0.3,4.2,0.3s4.3-0.3,4.3-0.3c0.5,0,0.8,0.7,0.8,1.5v2.7h-10V245.4z M179.4,245.4
	c0-0.8,0.2-1.5,0.6-1.5c0,0,2.3,0.3,4.1,0.3s4.2-0.3,4.2-0.3c0.5,0,0.9,0.8,0.9,1.6l-0.1,2.6h-9.7V245.4z M179.1,249.2
	c0,0,5.3,0.3,9,0.3s8.7-0.3,8.7-0.3c1,0,1.6,0.7,1.6,1.5v2.4h-21v-2.4C177.4,249.9,178.2,249.2,179.1,249.2z M163.7,245.5
	c0-0.8,0.5-1.6,1.1-1.6c0,0,3.4,0.3,5.9,0.3s5.8-0.3,5.8-0.3c0.6,0,0.9,0.7,0.9,1.5v2.7h-13.8L163.7,245.5z M157.4,256.5v2.6h-12.2
	l0.1-2.4c0-0.8,0.9-1.6,1.4-1.6c0,0,3,0.2,4.9,0.2s4.7-0.3,4.7-0.3C156.7,255,157.4,255.7,157.4,256.5z M145.4,245.9
	c0-0.8,0.6-1.5,1-1.5c0,0,2.5,0.3,4.3,0.3s4-0.3,4-0.3c0.4,0,0.7,0.7,0.7,1.5v2.2h-10V245.9z M146.2,249.7c0,0,2.7,0.3,4.5,0.3
	s4-0.3,4-0.3c0.5,0,0.6,0.7,0.6,1.5v1.9h-10.2l-0.1-2.1C145.1,250.2,145.8,249.7,146.2,249.7z M134.4,245.9c0-0.8,0.4-1.5,0.8-1.5
	c0,0,2.3,0.3,4.1,0.3c1.7,0,4.1-0.3,4.1-0.3c0.5,0,1,0.7,1,1.5v2.2h-10V245.9z M133.4,251.3c0-0.8,0.8-1.5,1.2-1.5
	c0,0,2.6,0.3,4.4,0.3s4.3-0.3,4.3-0.3c0.4,0,1,1,1,1.8l-0.1,2.6h-10.8V251.3z M134.2,255c0,0,2.6,0.3,4.5,0.3c1.9,0,4.6-0.3,4.6-0.3
	c0.4,0,1,0.7,1,1.5v2.6h-11v-2.6C133.4,255.7,133.7,255,134.2,255z M123.4,245.9c0-0.8,0.3-1.5,0.7-1.5c0,0,2.3,0.3,4.1,0.3
	s4.2-0.3,4.2-0.3c0.4,0,1,0.7,1,1.5v2.2h-10V245.9z M121.4,251.3c0-0.8,0.8-1.5,1.2-1.5c0,0,2.7,0.3,4.5,0.3s4.3-0.3,4.3-0.3
	c0.5,0,0.9,1,0.9,1.8l-0.1,2.6h-10.9V251.3z M121.4,256.5c0-0.8-0.1-1.5,0.4-1.5c0,0,2.3,0.3,4.2,0.3c1.9,0,4.5-0.3,4.5-0.3
	c0.4,0,0.9,0.7,0.9,1.5v2.6h-10V256.5z M62.4,256.6c0-0.8,0.3-1.5,0.7-1.5c0,0,2.4,0.3,4,0.3c1.7,0,3.9-0.3,3.9-0.3
	c0.5,0,0.5,0.7,0.5,1.5v2.5h-9V256.6z M90.5,255.5c1.7,0,4.1-0.3,4.1-0.3c0.5,0,0.7,0.7,0.7,1.5v2.4h-10v-2.4c0-0.8,0.5-1.5,0.9-1.5
	C86.3,255.2,88.8,255.5,90.5,255.5z M87.4,253.1v-2c0-0.9,0.6-1.5,1.1-1.5c0,0,2.5,0.3,4.3,0.3s4.5-0.3,4.5-0.3
	c0.4,0,1.1,0.7,1.1,1.5v2H87.4z M88.5,261.1c1.7,0,4-0.3,4-0.3c0.5,0,0.8,0.6,0.8,1.5v1.8h-10v-1.8c0-0.8,0.5-1.5,0.9-1.5
	C84.3,260.8,86.8,261.1,88.5,261.1z M84.4,259.1h-10v-2.4c0-0.8,0.2-1.5,0.6-1.5c0,0,2.3,0.3,4,0.3s4.4-0.3,4.4-0.3
	c0.5,0,1.1,0.7,1.1,1.5V259.1z M76.8,261.1c1.7,0,4.5-0.3,4.5-0.3c0.4,0,1.1,0.6,1.1,1.5v1.8h-11v-1.8c0-0.8,0.5-1.5,1-1.5
	C72.3,260.8,75.1,261.1,76.8,261.1z M60.4,262.2c0-0.8,0.3-1.5,0.7-1.5c0,0,2.3,0.3,4.1,0.3c1.7,0,4.2-0.3,4.2-0.3
	c0.5,0,1,0.7,1,1.5v1.9h-10V262.2z M67.4,273.1h-9v-5.5c0-0.8,0.2-1.5,0.6-1.5c0,0,2.3,0.3,4,0.3s3.9-0.3,3.9-0.3
	c0.4,0,0.5,0.7,0.5,1.5V273.1z M79.4,273.1h-8.9l0.1-5.7c0-0.8,0.1-1.4,0.5-1.4c0,0,2.1,0.4,3.8,0.4s3.9-0.3,3.9-0.3
	c0.4,0,0.5,0.7,0.5,1.5V273.1z M103.4,273.1h-22v-5.5c0-0.8,0.9-1.5,1.9-1.5c0,0,5.4,0.3,9.4,0.3c3.9,0,9.3-0.3,9.3-0.3
	c0.9,0,1.5,0.7,1.5,1.5V273.1z M105.4,262.1v2h-11v-1.8c0-0.8,0.8-1.5,1.3-1.5c0,0,2.8,0.3,4.5,0.3s4.2-0.4,4.2-0.4
	C104.9,260.7,105.3,261.1,105.4,262.1L105.4,262.1z M107.4,259.1h-10v-2.4c0-0.8,0.5-1.5,0.9-1.5c0,0,2.4,0.3,4.1,0.3
	s4.1-0.3,4.1-0.3c0.4,0,0.8,0.7,0.8,1.5V259.1z M102.4,245.5c0-0.8,0.2-1.5,0.6-1.5c0,0,2.2,0.3,4,0.3s4.4-0.3,4.4-0.3
	c0.4,0,1.1,0.7,1.1,1.5v2.6h-10V245.5z M100.3,249.6c0,0,2.5,0.3,4.3,0.3s4.3-0.3,4.3-0.3c0.5,0,1,0.5,1,1.3l-0.1,2.2H99.4v-2
	C99.4,250.3,99.9,249.6,100.3,249.6z M89.4,245.5c0-0.8,0.7-1.5,1.1-1.5c0,0,2.5,0.3,4.3,0.3s4-0.3,4-0.3c0.5,0,0.6,0.7,0.6,1.5v2.6
	h-10V245.5z M78.4,245.5c0-0.8,0.4-1.5,0.8-1.5c0,0,2.4,0.3,4.1,0.3c1.8,0,4.2-0.3,4.2-0.3c0.5,0,0.9,0.7,0.9,1.5v2.6h-10V245.5z
	 M77,249.6c0,0,2.5,0.3,4.2,0.3c1.8,0,4.3-0.3,4.3-0.3c0.4,0,0.9,0.7,0.9,1.5v2h-10v-2C76.4,250.2,76.6,249.6,77,249.6z M71.5,244.2
	c1.8,0,4.2-0.4,4.2-0.4c0.5,0,0.8,1.4,0.8,1.4h-0.1v3h-10v-2.7c0-0.8,0.5-1.5,0.9-1.5C67.2,243.9,69.7,244.2,71.5,244.2z M64.4,251
	c0-0.8,0.4-1.5,0.8-1.5c0,0,2.6,0.3,4.3,0.3s4.1-0.3,4.1-0.3c0.4,0,0.8,0.7,0.8,1.5v2.1h-10V251z"/>
</svg>
