<?xml version="1.0" encoding="utf-8"?>
<!-- Generator: Adobe Illustrator 18.1.1, SVG Export Plug-In . SVG Version: 6.00 Build 0)  -->
<svg version="1.1" id="Layer_1" xmlns="http://www.w3.org/2000/svg" xmlns:xlink="http://www.w3.org/1999/xlink" x="0px" y="0px"
	 viewBox="0 0 284.7 207.9" enable-background="new 0 0 284.7 207.9" xml:space="preserve">
<path opacity="0.79" fill="#219E97" enable-background="new    " d="M284.7,204.9c0,1.2-1.1,2.3-2.3,3H2c-1.2-0.7-2-1.9-2-3v-1.4
	h284.7L284.7,204.9L284.7,204.9z"/>
<path opacity="0.79" fill="#219E97" enable-background="new    " d="M25.7,193.2l-0.7-4.9c0-0.4-0.2-0.7-0.5-0.7
	c-2.2,0.2-4.5,0.2-6.9,0c-0.3,0-0.5,0.4-0.5,0.8l-0.5,4.9h9.1V193.2z M36.3,193.2l-0.7-4.9c0-0.4-0.2-0.7-0.5-0.7
	c-2.2,0.2-4.5,0.2-6.9,0c-0.3,0-0.5,0.4-0.5,0.8l-0.5,4.9h9.1V193.2z M37,183.5c0-0.3-0.2-0.6-0.5-0.6h-6.4c-0.3,0-0.5,0.3-0.5,0.6
	l-0.4,2.7h8.3L37,183.5z M55.8,193.2l-1.4-4.9c0-0.4-0.4-0.7-0.9-0.7c-4.3,0.2-8.8,0.2-13.7,0c-0.5,0-0.9,0.4-0.9,0.8l-0.9,4.9h17.8
	V193.2z M56.6,183.5c0-0.3-0.2-0.6-0.5-0.6h-6.4c-0.3,0-0.5,0.3-0.5,0.6l-0.4,2.7h8.3L56.6,183.5z M58.4,178.7
	c0-0.3-0.2-0.6-0.5-0.6h-6.4c-0.3,0-0.5,0.3-0.5,0.6l-0.4,2.7h8.3L58.4,178.7z M60.4,174c0-0.3-0.2-0.6-0.5-0.6h-6.4
	c-0.3,0-0.5,0.3-0.5,0.6l-0.4,2.7h8.3L60.4,174z M62.3,169.2c0-0.3-0.2-0.6-0.5-0.6h-6.4c-0.3,0-0.5,0.3-0.5,0.6l-0.4,2.7h8.3
	L62.3,169.2z M75.2,193.2l-0.7-4.4c0-0.3-0.2-0.7-0.5-0.7c-2.2,0.2-4.5,0.2-6.9,0c-0.3,0-0.5,0.4-0.5,0.7l-0.5,4.4H75.2z
	 M85.5,193.2l-0.7-4.4c0-0.3-0.2-0.7-0.5-0.7c-2.2,0.2-4.5,0.2-6.9,0c-0.3,0-0.5,0.4-0.5,0.7l-0.5,4.4H85.5z M95.7,193.2l-0.7-4.4
	c0-0.3-0.2-0.7-0.5-0.7c-2.2,0.2-4.5,0.2-6.9,0c-0.3,0-0.5,0.4-0.5,0.7l-0.5,4.4H95.7z M97.2,176.1c0-0.3-0.2-0.6-0.5-0.6
	c-2.2,0.2-4.5,0.2-6.9,0c-0.3,0-0.5,0.2-0.5,0.6l-0.5,4.3h9.1L97.2,176.1z M100,161.7c0-0.3-0.2-0.6-0.5-0.6c-2.2,0.2-4.5,0.2-6.9,0
	c-0.3,0-0.5,0.3-0.5,0.6l-0.5,4.3h9.1L100,161.7z M118.1,193.2l-1.1-4.9c0-0.4-0.3-0.7-0.7-0.7c-3.4,0.2-7,0.2-10.9,0
	c-0.4,0-0.7,0.4-0.7,0.8l-0.7,4.9h14.1L118.1,193.2L118.1,193.2z M146.6,193.2l-1.1-4.9c0-0.4-0.3-0.7-0.7-0.7
	c-3.4,0.2-7,0.2-10.9,0c-0.4,0-0.7,0.4-0.7,0.8l-0.7,4.9h14.1L146.6,193.2L146.6,193.2z M221.5,193.2l-1.5-4.9
	c0-0.4-0.4-0.8-0.9-0.8c-22.9,0.5-45.8,0.5-68.7,0c-0.5,0-0.9,0.4-0.9,0.8l-1.5,4.8L221.5,193.2L221.5,193.2z M221.2,183.5
	c0-0.3-0.2-0.6-0.5-0.6h-6.4c-0.3,0-0.5,0.3-0.5,0.6l-0.4,2.7h8.3L221.2,183.5z M237.3,193.2l-1.1-4.9c0-0.4-0.3-0.7-0.7-0.7
	c-3.4,0.2-7,0.2-10.9,0c-0.4,0-0.7,0.4-0.7,0.8l-0.7,4.9h14.1L237.3,193.2L237.3,193.2z M240.8,183.5c0-0.3-0.2-0.6-0.5-0.6h-6.4
	c-0.3,0-0.5,0.3-0.5,0.6l-0.4,2.7h8.3L240.8,183.5z M264.2,186.3l-0.4-2.9c0-0.2-0.2-0.4-0.4-0.4h-19.9c-0.2,0-0.4,0.2-0.4,0.4
	l-0.4,2.9H264.2z M267.3,193.2l-1.1-4.9c0-0.4-0.3-0.7-0.7-0.7c-3.4,0.2-7,0.2-10.9,0c-0.4,0-0.7,0.4-0.7,0.8l-0.7,4.9h14.1
	L267.3,193.2L267.3,193.2z M261.5,178.5c0-0.2-0.2-0.5-0.4-0.5c-4.7,0.2-9.2,0.2-13.6,0c-0.2,0-0.4,0.3-0.4,0.5l-0.4,3h15.2
	L261.5,178.5z M259.6,173.7c0-0.2-0.2-0.5-0.4-0.5c-4.7,0.2-9.2,0.2-13.6,0c-0.2,0-0.4,0.3-0.4,0.5l-0.4,3H260L259.6,173.7z
	 M245.4,171.9h8.3l-0.4-2.7c0-0.3-0.2-0.6-0.5-0.6h-6.4c-0.3,0-0.5,0.3-0.5,0.6L245.4,171.9z M253.6,161.7c0-0.3-0.2-0.6-0.5-0.6
	c-2.2,0.2-4.5,0.2-6.9,0c-0.3,0-0.5,0.3-0.5,0.6l-0.5,4.3h9.1L253.6,161.7z M244.2,178.2h-6.4c-0.3,0-0.5,0.3-0.5,0.6l-0.4,2.7h8.3
	l-0.4-2.7C244.7,178.4,244.5,178.2,244.2,178.2 M243.5,169.2c0-0.3-0.2-0.6-0.5-0.6h-6.4c-0.3,0-0.5,0.3-0.5,0.6l-0.4,2.7h8.3
	L243.5,169.2z M235.3,174l-0.4,2.7h8.3l-0.4-2.7c0-0.3-0.2-0.6-0.5-0.6h-6.4C235.6,173.4,235.3,173.7,235.3,174 M234.4,178.2H228
	c-0.3,0-0.5,0.3-0.5,0.6l-0.4,2.7h8.3l-0.4-2.7C234.9,178.4,234.7,178.2,234.4,178.2 M234,161.7c0-0.3-0.2-0.6-0.5-0.6
	c-2.2,0.2-4.5,0.2-6.9,0c-0.3,0-0.5,0.3-0.5,0.6l-0.5,4.3h9.1L234,161.7z M234,171.9l-0.4-2.7c0-0.3-0.2-0.6-0.5-0.6h-6.4
	c-0.3,0-0.5,0.3-0.5,0.6l-0.4,2.7H234z M225.1,176.7h8.3L233,174c0-0.3-0.2-0.6-0.5-0.6h-6.4c-0.3,0-0.5,0.3-0.5,0.6L225.1,176.7z
	 M223.1,186.3h8.3l-0.4-2.7c0-0.3-0.2-0.6-0.5-0.6h-6.4c-0.3,0-0.5,0.3-0.5,0.6L223.1,186.3z M224.6,178.2h-6.4
	c-0.3,0-0.5,0.3-0.5,0.6l-0.4,2.7h8.3l-0.4-2.7C225.1,178.4,224.9,178.2,224.6,178.2 M223.8,161.7c0-0.3-0.2-0.6-0.5-0.6
	c-2.2,0.2-4.5,0.2-6.9,0c-0.3,0-0.5,0.3-0.5,0.6l-0.5,4.3h9.1L223.8,161.7z M224.2,171.9l-0.4-2.7c0-0.3-0.2-0.6-0.5-0.6h-6.4
	c-0.3,0-0.5,0.3-0.5,0.6l-0.4,2.7H224.2z M223.6,176.7l-0.4-2.7c0-0.3-0.2-0.6-0.5-0.6h-6.4c-0.3,0-0.5,0.3-0.5,0.6l-0.4,2.7H223.6z
	 M214.8,178.2h-6.4c-0.3,0-0.5,0.3-0.5,0.6l-0.4,2.7h8.3l-0.4-2.7C215.3,178.4,215.1,178.2,214.8,178.2 M214.1,169.2
	c0-0.3-0.2-0.6-0.5-0.6h-6.4c-0.3,0-0.5,0.3-0.5,0.6l-0.4,2.7h8.3L214.1,169.2z M213.5,161.7c0-0.3-0.2-0.6-0.5-0.6
	c-2.2,0.2-4.5,0.2-6.9,0c-0.3,0-0.5,0.3-0.5,0.6l-0.5,4.3h9.1L213.5,161.7z M213.8,176.7l-0.4-2.7c0-0.3-0.2-0.6-0.5-0.6h-6.4
	c-0.3,0-0.5,0.3-0.5,0.6l-0.4,2.7H213.8z M203.5,186.3h8.3l-0.4-2.7c0-0.3-0.2-0.6-0.5-0.6h-6.4c-0.3,0-0.5,0.3-0.5,0.6L203.5,186.3
	z M198.6,178.2c-0.3,0-0.5,0.3-0.5,0.6l-0.4,2.7h8.3l-0.4-2.7c0-0.3-0.2-0.6-0.5-0.6H198.6z M204.3,169.2c0-0.3-0.2-0.6-0.5-0.6
	h-6.4c-0.3,0-0.5,0.3-0.5,0.6l-0.4,2.7h8.3L204.3,169.2z M203.3,161.7c0-0.3-0.2-0.6-0.5-0.6c-2.2,0.2-4.5,0.2-6.9,0
	c-0.3,0-0.5,0.3-0.5,0.6l-0.5,4.3h9.1L203.3,161.7z M194.5,169.2c0-0.3-0.2-0.6-0.5-0.6h-6.4c-0.3,0-0.5,0.3-0.5,0.6l-0.4,2.7h8.3
	L194.5,169.2z M188.9,161.7c0-0.3-0.2-0.6-0.5-0.6c-2.2,0.2-4.5,0.2-6.9,0c-0.3,0-0.5,0.3-0.5,0.6l-0.5,4.3h9.1L188.9,161.7z
	 M178.6,161.7c0-0.3-0.2-0.6-0.5-0.6c-2.2,0.2-4.5,0.2-6.9,0c-0.3,0-0.5,0.3-0.5,0.6l-0.5,4.3h9.1L178.6,161.7z M168.4,161.7
	c0-0.3-0.2-0.6-0.5-0.6c-2.2,0.2-4.5,0.2-6.9,0c-0.3,0-0.5,0.3-0.5,0.6L160,166h9.1L168.4,161.7z M158.1,161.7
	c0-0.3-0.2-0.6-0.5-0.6c-2.2,0.2-4.5,0.2-6.9,0c-0.3,0-0.5,0.3-0.5,0.6l-0.5,4.3h9.1L158.1,161.7z M147.8,169.2l-0.4,2.7h8.3
	l-0.4-2.7c0-0.3-0.2-0.6-0.5-0.6h-6.4C148,168.6,147.8,168.9,147.8,169.2 M147.1,174l-0.4,2.7h8.3l-0.4-2.7c0-0.3-0.2-0.6-0.5-0.6
	h-6.4C147.4,173.4,147.1,173.7,147.1,174 M152.6,183.5c0-0.3-0.2-0.6-0.5-0.6h-6.4c-0.3,0-0.5,0.3-0.5,0.6l-0.4,2.7h8.3L152.6,183.5
	z M156.9,181.5l-0.4-2.7c0-0.3-0.2-0.6-0.5-0.6h-6.4c-0.3,0-0.5,0.3-0.5,0.6l-0.4,2.7H156.9z M162.4,183.5c0-0.3-0.2-0.6-0.5-0.6
	h-6.4c-0.3,0-0.5,0.3-0.5,0.6l-0.4,2.7h8.3L162.4,183.5z M156.9,174l-0.4,2.7h8.3l-0.4-2.7c0-0.3-0.2-0.6-0.5-0.6h-6.4
	C157.2,173.4,156.9,173.7,156.9,174 M165.4,171.9l-0.4-2.7c0-0.3-0.2-0.6-0.5-0.6h-6.4c-0.3,0-0.5,0.3-0.5,0.6l-0.4,2.7H165.4z
	 M166.7,181.5l-0.4-2.7c0-0.3-0.2-0.6-0.5-0.6h-6.4c-0.3,0-0.5,0.3-0.5,0.6l-0.4,2.7H166.7z M172.2,183.5c0-0.3-0.2-0.6-0.5-0.6
	h-6.4c-0.3,0-0.5,0.3-0.5,0.6l-0.4,2.7h8.3L172.2,183.5z M166.7,174l-0.4,2.7h8.3l-0.4-2.7c0-0.3-0.2-0.6-0.5-0.6h-6.4
	C167,173.4,166.7,173.7,166.7,174 M175.2,171.9l-0.4-2.7c0-0.3-0.2-0.6-0.5-0.6h-6.4c-0.3,0-0.5,0.3-0.5,0.6l-0.4,2.7H175.2z
	 M176.5,181.5l-0.4-2.7c0-0.3-0.2-0.6-0.5-0.6h-6.4c-0.3,0-0.5,0.3-0.5,0.6l-0.4,2.7H176.5z M182,183.5c0-0.3-0.2-0.6-0.5-0.6h-6.4
	c-0.3,0-0.5,0.3-0.5,0.6l-0.4,2.7h8.3L182,183.5z M176.5,174l-0.4,2.7h8.3L184,174c0-0.3-0.2-0.6-0.5-0.6h-6.4
	C176.8,173.4,176.5,173.7,176.5,174 M185,171.9l-0.4-2.7c0-0.3-0.2-0.6-0.5-0.6h-6.4c-0.3,0-0.5,0.3-0.5,0.6l-0.4,2.7H185z
	 M186.3,181.5l-0.4-2.7c0-0.3-0.2-0.6-0.5-0.6H179c-0.3,0-0.5,0.3-0.5,0.6l-0.4,2.7H186.3z M191.8,183.5c0-0.3-0.2-0.6-0.5-0.6h-6.4
	c-0.3,0-0.5,0.3-0.5,0.6l-0.4,2.7h8.3L191.8,183.5z M194.2,176.7l-0.4-2.7c0-0.3-0.2-0.6-0.5-0.6h-6.4c-0.3,0-0.5,0.3-0.5,0.6
	l-0.4,2.7H194.2z M204,176.7l-0.4-2.7c0-0.3-0.2-0.6-0.5-0.6h-6.4c-0.3,0-0.5,0.3-0.5,0.6l-0.4,2.7H204z M193.7,186.3h8.3l-0.4-2.7
	c0-0.3-0.2-0.6-0.5-0.6h-6.4c-0.3,0-0.5,0.3-0.5,0.6L193.7,186.3z M196.1,181.5l-0.4-2.7c0-0.3-0.2-0.6-0.5-0.6h-6.4
	c-0.3,0-0.5,0.3-0.5,0.6l-0.4,2.7H196.1z M146.2,178.2h-6.4c-0.3,0-0.5,0.3-0.5,0.6l-0.4,2.7h8.3l-0.4-2.7
	C146.7,178.4,146.5,178.2,146.2,178.2 M145.5,169.2c0-0.3-0.2-0.6-0.5-0.6h-6.4c-0.3,0-0.5,0.3-0.5,0.6l-0.4,2.7h8.3L145.5,169.2z
	 M144.3,161.7c0-0.3-0.2-0.6-0.5-0.6c-2.2,0.2-4.5,0.2-6.9,0c-0.3,0-0.5,0.3-0.5,0.6l-0.5,4.3h9.1L144.3,161.7z M135.1,168.6h-6.4
	c-0.3,0-0.5,0.3-0.5,0.6l-0.4,2.7h8.3l-0.4-2.7C135.7,168.9,135.4,168.6,135.1,168.6 M134,161.7c0-0.3-0.2-0.6-0.5-0.6
	c-2.2,0.2-4.5,0.2-6.9,0c-0.3,0-0.5,0.3-0.5,0.6l-0.5,4.3h9.1L134,161.7z M107.8,168.6c-0.2,0-0.4,0.2-0.4,0.4l-0.4,2.9h19.3
	l-0.4-2.9c0-0.2-0.2-0.4-0.4-0.4H107.8z M123.8,161.7c0-0.3-0.2-0.6-0.5-0.6c-2.2,0.2-4.5,0.2-6.9,0c-0.3,0-0.5,0.3-0.5,0.6
	l-0.5,4.3h9.1L123.8,161.7z M113.5,161.7c0-0.3-0.2-0.6-0.5-0.6c-2.2,0.2-4.5,0.2-6.9,0c-0.3,0-0.5,0.3-0.5,0.6l-0.5,4.3h9.1
	L113.5,161.7z M135.4,176.7L135,174c0-0.3-0.2-0.6-0.5-0.6h-6.4c-0.3,0-0.5,0.3-0.5,0.6l-0.4,2.7H135.4z M125.6,176.7l-0.4-2.9
	c0-0.2-0.2-0.4-0.4-0.4h-17.7c-0.2,0-0.4,0.2-0.4,0.4l-0.4,2.9H125.6z M106.7,178.2c-0.2,0-0.8,0.2-0.8,0.4l-0.4,2.9h22l-0.4-2.9
	c0-0.2-0.2-0.4-0.4-0.4H106.7z M145.2,176.7l-0.4-2.7c0-0.3-0.2-0.6-0.5-0.6h-6.4c-0.3,0-0.5,0.3-0.5,0.6l-0.4,2.7H145.2z
	 M134.9,186.3h8.3l-0.4-2.7c0-0.3-0.2-0.6-0.5-0.6h-6.4c-0.3,0-0.5,0.3-0.5,0.6L134.9,186.3z M137.3,181.5l-0.4-2.7
	c0-0.3-0.2-0.6-0.5-0.6H130c-0.3,0-0.5,0.3-0.5,0.6l-0.4,2.7H137.3z M104.7,186.3h28.7l-0.4-2.8c0-0.3-0.3-0.6-0.6-0.6
	c-8.8,0.3-18.1,0.2-26.7,0c-0.3,0-0.6,0.3-0.6,0.7L104.7,186.3z M89.8,161.7c0-0.3-0.2-0.6-0.5-0.6c-2.2,0.2-4.5,0.2-6.9,0
	c-0.3,0-0.5,0.3-0.5,0.6l-0.5,4.3h9.1L89.8,161.7z M78.6,180.4h9.1l-0.7-4.3c0-0.3-0.2-0.6-0.5-0.6c-2.2,0.2-4.5,0.2-6.9,0
	c-0.3,0-0.5,0.2-0.5,0.6L78.6,180.4z M79.5,161.7c0-0.3-0.2-0.6-0.5-0.6c-2.2,0.2-4.5,0.2-6.9,0c-0.3,0-0.5,0.3-0.5,0.6l-0.5,4.3
	h9.1L79.5,161.7z M68.8,176.1l-0.5,4.3h9.1l-0.7-4.3c0-0.3-0.2-0.6-0.5-0.6c-2.2,0.2-4.5,0.2-6.9,0
	C69.1,175.5,68.8,175.7,68.8,176.1 M52.5,169.2c0-0.3-0.2-0.6-0.5-0.6h-6.4c-0.3,0-0.5,0.3-0.5,0.6l-0.4,2.7H53L52.5,169.2z
	 M43.1,174l-0.4,2.7H51l-0.4-2.7c0-0.3-0.2-0.6-0.5-0.6h-6.4C43.4,173.4,43.1,173.7,43.1,174 M42.7,169.2c0-0.3-0.2-0.6-0.5-0.6
	h-6.4c-0.3,0-0.5,0.3-0.5,0.6l-0.4,2.7h8.3L42.7,169.2z M33.3,174l-0.4,2.7h8.3l-0.4-2.7c0-0.3-0.2-0.6-0.5-0.6h-6.4
	C33.6,173.4,33.3,173.7,33.3,174 M48.9,181.5l-0.4-2.7c0-0.3-0.2-0.6-0.5-0.6h-6.4c-0.3,0-0.5,0.3-0.5,0.6l-0.4,2.7H48.9z
	 M46.8,183.5c0-0.3-0.2-0.6-0.5-0.6h-6.4c-0.3,0-0.5,0.3-0.5,0.6l-0.4,2.7h8.3L46.8,183.5z M31.3,178.7l-0.4,2.7h8.3l-0.4-2.7
	c0-0.3-0.2-0.6-0.5-0.6h-6.4C31.5,178.2,31.3,178.4,31.3,178.7 M28.4,176.6c0-0.4-0.2-0.7-0.5-0.7c-2.2,0.2-4.5,0.2-6.9,0
	c-0.3,0-0.5,0.4-0.5,0.8l-0.5,4.9h9.1L28.4,176.6z M236.3,156.9h23.4c0.9,0,1.8,0.5,2.2,1.3l22.5,41.7l0,0c0.1,0,0.3,0.4,0.3,0.7
	v2.6H0v-2.6c0-0.3,0-0.7,0.1-0.7l0,0l0,0c0-0.1,0.1-0.3,0.2-0.4l18.5-35.6l2.9-5.7c0.4-0.8,1.3-1.3,2.2-1.3h58.3h150.1"/>
<path opacity="0.79" fill="#219E97" enable-background="new    " d="M247.7,126c1.4,0,2.6-1.1,2.6-2.4v-113c0-1.4-1.2-2.4-2.6-2.4
	H84.2c-1.4,0-2.6,1.1-2.6,2.4v113c0,1.3,1.2,2.4,2.6,2.4H247.7z M83.9,134c1.3,0,2.3-1,2.3-2.2s-1-2.2-2.3-2.2s-2.3,1-2.3,2.2
	S82.7,134,83.9,134 M93.2,134c1.3,0,2.3-1,2.3-2.2s-1-2.2-2.3-2.2s-2.3,1-2.3,2.2S91.9,134,93.2,134 M102.1,134c1.3,0,2.3-1,2.3-2.2
	s-1-2.2-2.3-2.2s-2.3,1-2.3,2.2S100.8,134,102.1,134 M152.4,146.6v-7.4H76.6c-2,0-3.5-1.5-3.5-3.4V3.4c0-1.9,1.6-3.4,3.5-3.4h178.6
	c2,0,3.5,1.5,3.5,3.4v132.5c0,1.9-1.6,3.4-3.5,3.4h-75.8v7.4c15.6,1,28.6,5.1,36,9.5h-99.1C123.8,151.7,136.8,147.6,152.4,146.6"/>
<path opacity="0.56" fill="#219E97" enable-background="new    " d="M247.7,8.1H84.2c-1.4,0-2.2,1.1-2.2,2.5v113
	c0,1.4,0.8,2.5,2.2,2.5h163.5c1.4,0,2.3-1.2,2.3-2.5v-113C250,9.2,249.1,8.1,247.7,8.1z"/>
</svg>
