<?xml version="1.0" encoding="utf-8"?>
<!-- Generator: Adobe Illustrator 18.1.1, SVG Export Plug-In . SVG Version: 6.00 Build 0)  -->
<svg version="1.1" id="Layer_1" xmlns="http://www.w3.org/2000/svg" xmlns:xlink="http://www.w3.org/1999/xlink" x="0px" y="0px"
	 viewBox="0 0 691.8 453.3" enable-background="new 0 0 691.8 453.3" xml:space="preserve">
<path opacity="0.81" fill="#CFD6CF" enable-background="new    " d="M222.1,33.2c-4.4,0-7.9,3.6-7.9,8v157.4c0,4.4,3.5,8,7.9,8
	h206.3c4.4,0,7.9-3.6,7.9-8V41.2c0-4.4-3.5-8-7.9-8H222.1z"/>
<path fill="#CFD6CF" d="M396.8,411.5l-8.5-74.1c-0.4-3.1-3.4-5.5-7.1-5.5H20.7c-3.5,0-6.5,2.2-7,5.1L0.1,411.1
	c-0.1,0.8-0.1,1.6,0.1,2.3c-0.1,0.5-0.2,1-0.2,1.5l1.1,11.5h394.4l1.1-11.5c0-0.5-0.1-1-0.2-1.5
	C396.8,412.8,396.9,412.1,396.8,411.5z M367.7,365.1v6.6h-37v-6.6H367.7z M366.8,360.9h-21.4v-6.6h21.4V360.9z M343.8,340.2h17.3
	V351h-17.3V340.2z M339.7,360.9h-18.1v-6.6h18.1V360.9z M318.3,340.2h17.3V351h-17.3V340.2z M302.6,371.7v-6.6h0.1h17.2v6.6H302.6z
	 M316.7,375.9v6.6h-17.3v-6.6H316.7z M315.8,360.9h-18.1v-6.6h18.1V360.9z M292.8,340.2h17.3V351h-17.3V340.2z M296.1,365.1v6.6
	h-17.3v-6.6H296.1z M289.5,360.9h-18.1v-6.6h18.1V360.9z M267.3,340.2h17.3V351h-17.3V340.2z M253.3,371.7v-6.6h17.3v6.6H253.3z
	 M266.5,375.9v6.6h-18.1v-6.6H266.5z M264,360.9h-18.1v-6.6H264V360.9z M241.8,340.2h17.3V351h-17.3V340.2z M227.8,371.7v-6.6h17.3
	v6.6H227.8z M241,375.9v6.6h-17.3v-6.6H241z M237.7,360.9h-17.3v-6.6h17.3V360.9z M216.3,340.2h17.3V351h-17.3V340.2z M202.3,371.7
	v-6.6h18.1v6.6H202.3z M215.5,375.9v6.6h-17.3v-6.6H215.5z M212.2,360.9h-17.3v-6.6h17.3V360.9z M190.8,340.2h17.3V351h-17.3V340.2z
	 M176.8,371.7v-6.6h18.1v6.6H176.8z M190,375.9v6.6h-17.3v-6.6H190z M186.7,360.9h-18.1v-6.6h18.1V360.9z M152.1,371.7v-6.6h17.3
	v6.6H152.1z M164.5,375.9v6.6h-17.3v-6.6H164.5z M165.3,340.2h17.3V351h-17.3V340.2z M161.2,360.9h-18.1v-6.6h18.1V360.9z
	 M126.6,371.7v-6.6h17.3v6.6H126.6z M139,375.9v6.6h-17.3v-6.6H139z M139.8,340.2h17.3V351h-17.3V340.2z M135.7,360.9h-18.1v-6.6
	h18.1V360.9z M101.1,371.7v-6.6h17.3v6.6H101.1z M114.3,375.9v6.6H96.2v-6.6H114.3z M114.3,340.2h17.3V351h-17.3V340.2z
	 M109.4,360.9H92.1v-6.6h17.3V360.9z M92.9,365.1v6.6H75.6v-6.6H92.9z M88.8,340.2h17.3V351H88.8V340.2z M63.3,340.2h17.3V351H63.3
	V340.2z M37.8,340.2h17.3V351H37.8V340.2z M31.2,354.3h27.1v6.6H31.2V354.3z M28.8,365.1H65v6.6H28.8V365.1z M26.3,375.8h37v6.6h-37
	V375.8z M65.8,399.1H48.5v-10.8h17.3V399.1z M66.6,354.3h17.3v6.6H66.6V354.3z M70.7,375.8h18.1v6.6H70.7V375.8z M102.8,399.1H74
	v-10.8h28.8V399.1z M284.6,399.1H111v-10.8h173.6V399.1z M292,382.5h-18.1v-6.6H292V382.5z M324.1,399.1h-31.3v-10.8h31.3V399.1z
	 M349.6,399.1h-18.1v-10.8h18.1V399.1z M371.8,382.5h-46.9v-6.6h46.9V382.5z"/>
<path fill="#CFD6CF" d="M1.7,431.9c0,3.7,3,7,6.7,7h380c3.7,0,6.7-3.2,6.7-7l0.4-4.6H1.3L1.7,431.9z"/>
<path fill="#CFD6CF" d="M684,304.4H549.5c-4.4,0-8,3.6-8,8.1V331c-15-2-22.7-8.6-30.7-15.5c-11.1-9.6-22.6-19.5-52.3-16.2V6.4
	c0-3.5-2.7-6.4-6.2-6.4H199.1c-3.5,0-6.4,2.8-6.4,6.4v324.5h188.9c3.7,0,6.7,2.4,7.1,5.5l5.5,48.4h58c3.5,0,6.2-2.8,6.2-6.4v-66.7
	c14.5,1.6,29.6,6.6,41.3,14.1c12.3,7.9,27,22.2,27,45.7c0,8.8-3.8,15.6-7.8,20.4l-5.9-2.1h-48.3l-42.5,33.7v10.2
	c0,5.3,3.8,9.8,8.9,10.6l52.5,8.9c2.7,0.4,5.4-0.1,7.6-1.6l31.9-21.1c3.2-2.1,5.1-5.7,5.1-9.6v-25.6l-6.1-2.2
	c4.1-5.1,7.7-12.3,7.7-21.6c0-25-15.5-40.2-28.5-48.5c-12.3-7.9-27.9-13.1-43-14.6v-1.7c27.1-3.2,37.1,5.3,47.5,14.3
	c8.3,7.2,17.7,15.2,35.5,17.4V371c0,4.5,3.6,8.1,8,8.1h134.5c4.4,0,8-3.6,8-8.1v-58.5C692,308,688.4,304.4,684,304.4z M224.7,293.4
	c-0.8,0.6-1.7,0.7-2.6,0.3c-1.6-0.8-3.2-0.8-4.8,0c-1.2,0.6-2.3,0.3-3.2-0.6c-1.6-1.6-2.7-3.5-3.3-5.7c-0.5-1.7-0.6-3.4-0.2-5.1
	c0.5-2.3,2.4-4.1,4.7-4.3c0.7-0.1,1.5,0.1,2.2,0.3c1.4,0.6,2.7,0.6,4.1,0c2.2-0.9,4.4-0.2,5.9,1.7c-3.5,2.1-2.8,6.9,0.6,8.4
	C227.4,290.2,226.4,292.1,224.7,293.4z M219,277.6c0-1.3,0.5-2.3,1.4-3.2c0.8-0.8,1.7-1.3,2.8-1.4c0.4,2.3-1.6,4.8-3.8,5
	C219.1,278,219,277.9,219,277.6z M427.1,262.9h-102v-5.8h102V262.9z M436.2,198.6c0,4.4-3.5,8-7.9,8H222c-4.4,0-7.9-3.6-7.9-8V41.2
	c0-4.4,3.5-8,7.9-8h206.3c4.4,0,7.9,3.6,7.9,8V198.6z M664,327.2v4.6v6.6h-30.4v-6.6h-81.4v-4.1h81.4v-8.3H664V327.2z"/>
</svg>
