<!-- Modulus Futuramo Icons 2014 --><svg xmlns="http://www.w3.org/2000/svg" x="0px" y="0px" width="64px" height="64px" viewBox="0 0 32 32"><path fill="#ffffff" d="M27.809,6H32l-5.529,16H10.389l-0.781,2.342c0.777,0.342,1.414,0.93,1.838,1.658h9.109 c0.693-1.191,1.969-2,3.445-2c2.209,0,4,1.791,4,4s-1.791,4-4,4s-4-1.791-4-4h-8c0,2.209-1.791,4-4,4s-4-1.791-4-4 c0-2.07,1.58-3.756,3.598-3.959L8.279,22H6L4.123,6.988L2.115,3.977C2.076,3.979,2.041,4,2,4C0.895,4,0,3.105,0,2s0.895-2,2-2 s2,0.895,2,2c0,0.316-0.088,0.604-0.219,0.869L5.869,6H8l1.6,12h13.929L27.809,6z M10.376,12.16l3.975,3.655l3.655-3.975 l-3.975-3.655L10.376,12.16z M16.973,5.047L15.053,0l-5.047,1.921l1.921,5.047L16.973,5.047z M25.477,6.946L20.952,4l-2.946,4.526 l4.526,2.946L25.477,6.946z"></path></svg>
