<!-- Modulus Futuramo Icons 2014 --><svg xmlns="http://www.w3.org/2000/svg" x="0px" y="0px" width="64px" height="64px" viewBox="0 0 32 32"><path fill="#ffffff" d="M2.693,20c0,0,0.48,0,1.307,0c2.599,0,8.63,0,14,0h2h5c0.551,0,1,0.448,1,1c0,0.552-0.449,1-1,1h-7h-7 c-2.762,0-5,2.238-5,5c0,2.762,2.238,5,5,5h5c1.105,0,2-0.896,2-2c0-1.104-0.895-2-2-2h-5c-0.551,0-1-0.448-1-1 c0-0.552,0.449-1,1-1h7h7c2.762,0,5-2.238,5-5c0-0.453-0.079-0.883-0.192-1.3C31.266,19.22,32,17.962,32,14.655 c0-4.663-4.804-10.964-12.975-10.964c-0.963,0-1.972,0.087-3.025,0.275c-0.712,0.127-1.383,0.31-2.055,0.493 C13.673,1.955,11.576,0,9,0C6.238,0,4,2.238,4,5c0,1.338,0.613,2.679,1.623,3.614c-2.097,1.644-3.672,3.446-4.566,5.039 C0.055,15.435-1.301,20,2.693,20z M6,12h2v2H6V12z"></path></svg>
