<!-- Modulus Futuramo Icons 2014 --><svg xmlns="http://www.w3.org/2000/svg" x="0px" y="0px" width="64px" height="64px" viewBox="0 0 32 32"><path fill="#ffffff" d="M30.012,16.035c1.077,4.167-1.412,8.477-5.559,9.628c-0.286,0.081-0.574,0.104-0.858,0.15l-0.43-1.678 c0.285-0.032,0.566-0.066,0.855-0.145c3.22-0.897,5.159-4.256,4.325-7.492c-0.076-0.29-0.189-0.549-0.3-0.816l1.666-0.464 C29.814,15.488,29.938,15.749,30.012,16.035z M25.01,17.426c0.359,1.386-0.474,2.828-1.854,3.21 c-0.293,0.079-0.589,0.098-0.875,0.077l0.453,1.747c0.278-0.02,0.568-0.069,0.855-0.145c2.301-0.642,3.685-3.039,3.091-5.354 c-0.078-0.286-0.181-0.562-0.301-0.814l-1.74,0.482C24.8,16.867,24.932,17.131,25.01,17.426z M3.993,11.002 c0.071,0.282,0.174,0.558,0.301,0.814l1.734-0.487c-0.161-0.237-0.293-0.501-0.37-0.796c-0.355-1.385,0.477-2.826,1.854-3.21 c0.293-0.079,0.589-0.098,0.874-0.077L7.938,5.504C7.654,5.52,7.364,5.569,7.084,5.649C4.775,6.287,3.392,8.684,3.993,11.002z  M0.954,12.741l1.666-0.463c-0.109-0.264-0.224-0.526-0.3-0.816C1.49,8.227,3.43,4.868,6.645,3.97 C6.934,3.891,7.218,3.861,7.5,3.826l-0.43-1.678C6.787,2.194,6.502,2.219,6.214,2.296C2.07,3.449-0.418,7.759,0.655,11.924 C0.731,12.214,0.852,12.473,0.954,12.741z M0,16.541c6.444-3.208,7.514-4.683,9.533-8.136c1.425-2.44,3.502-3.005,5.394-2.877 c0.074-0.665,0.279-1.325,0.635-1.942c1.381-2.391,4.439-3.211,6.831-1.83c2.392,1.381,3.211,4.439,1.83,6.83 c-0.356,0.616-0.826,1.123-1.364,1.52c1.057,1.574,1.606,3.656,0.206,6.11c-1.981,3.475-2.724,5.139-2.279,12.324 c0,0-5.684-0.972-11.391-4.267l-0.002-0.001l-0.001,0C3.684,20.977,0,16.541,0,16.541z M16.911,5.896 c1.214,0.363,2.159,0.871,2.482,1.057c0.323,0.186,1.235,0.751,2.156,1.62C21.922,8.325,22.252,8,22.491,7.586 c0.827-1.433,0.334-3.271-1.098-4.098c-1.433-0.827-3.271-0.335-4.098,1.098C17.055,5,16.938,5.448,16.911,5.896z M11.837,27.994 l-3.444-1.988l-3.446-1.989c-1.104,1.913-0.457,4.355,1.446,5.454C8.294,30.567,10.733,29.907,11.837,27.994z"></path></svg>
