<!-- Modulus Futuramo Icons 2014 --><svg xmlns="http://www.w3.org/2000/svg" x="0px" y="0px" width="64px" height="64px" viewBox="0 0 32 32"><path fill="#ffffff" d="M7.761,21.391C4.132,16.96,1.554,9.545,2.065,8.637C3.28,6.479,5.123,3.872,5.588,3.985 c0.695,0.168,4.378,4.766,4.951,6.618c0.138,0.447-2.304,3.013-2.256,3.39c0.168,1.297,1.838,4.2,3.661,6.062 c1.862,1.823,4.765,3.493,6.062,3.661c0.377,0.049,2.943-2.394,3.39-2.256c1.853,0.573,6.45,4.256,6.618,4.951 c0.112,0.464-2.494,2.308-4.652,3.523c-0.908,0.511-8.323-2.067-12.755-5.696c-0.538-0.44-1.049-0.888-1.509-1.339 C8.648,22.441,8.201,21.929,7.761,21.391z M16,2v2c6.617,0,12,5.383,12,12h2C30,8.268,23.732,2,16,2z M24,16h2 c0-5.523-4.477-10-10-10v2C20.411,8,24,11.589,24,16z M20,16h2c0-3.314-2.686-6-6-6v2C18.206,12,20,13.794,20,16z"></path></svg>
