<!-- Modulus Futuramo Icons 2014 --><svg xmlns="http://www.w3.org/2000/svg" x="0px" y="0px" width="64px" height="64px" viewBox="0 0 32 32"><path fill="#ffffff" d="M10,20c0,1.104-0.896,2-2,2s-2-0.896-2-2c0-1.104,0.896-2,2-2S10,18.896,10,20z M16,22c0-1.105-0.895-2-2-2 s-2,0.895-2,2c0,1.105,0.895,2,2,2S16,23.105,16,22z M32,12v16H0V12l26.643-6.661C28.514,6.543,30.882,8.646,32,12z M28,16h-6 c0,2.209-1.791,4-4,4s-4-1.791-4-4H4v8h10h6.184c0.413-1.162,1.512-2,2.816-2s2.403,0.838,2.816,2H28V16z"></path></svg>
