<!-- Modulus Futuramo Icons 2014 --><svg xmlns="http://www.w3.org/2000/svg" x="0px" y="0px" width="64px" height="64px" viewBox="0 0 32 32"><path fill="#ffffff" d="M16.878,12.823l-2.717-2.412l3.559-0.728l0.731-3.561l2.411,2.718l3.446-1.149l-1.147,3.448l2.717,2.412 l-3.56,0.728l-0.729,3.561l-2.411-2.719l-3.448,1.149L16.878,12.823z M18.902,3.907L17.855,0L15.9,0.523l1.048,3.907L18.902,3.907z  M12.468,8.911L8.56,7.865L8.037,9.818l3.908,1.047L12.468,8.911z M22.182,23.963l1.953-0.523l-1.046-3.907l-1.953,0.523 L22.182,23.963z M29.312,4.117l-1.43-1.431l-2.861,2.861l1.432,1.429L29.312,4.117z M0,29.139L2.859,32l11.439-11.44l-2.859-2.859 L0,29.139z M27.569,15.052l3.906,1.046L32,14.145l-3.908-1.047L27.569,15.052z"></path></svg>
