<!-- Modulus Futuramo Icons 2014 --><svg xmlns="http://www.w3.org/2000/svg" x="0px" y="0px" width="64px" height="64px" viewBox="0 0 32 32"><path fill="#ffffff" d="M10.851,19.797c0.887,1.961,1.918,4.026,3.162,6.203h-4v6h12v-6h-4c1.243-2.177,2.274-4.242,3.161-6.203 C27.618,18.682,32.477,12.713,31.963,6h-6.39c0.438-2.553,0.44-4,0.44-4h-20c0,0,0.002,1.447,0.439,4H0.064 C-0.451,12.713,4.408,18.682,10.851,19.797z M29.948,8c-0.232,2.368-1.251,4.646-2.919,6.447c-1.346,1.453-3.036,2.5-4.869,3.067 c1.537-3.756,2.465-6.986,3.018-9.514H29.948z M6.849,8c0.552,2.528,1.479,5.757,3.017,9.514c-1.833-0.567-3.523-1.614-4.868-3.067 C3.33,12.646,2.311,10.368,2.079,8H6.849z"></path></svg>
