<!-- Modulus Futuramo Icons 2014 --><svg xmlns="http://www.w3.org/2000/svg" x="0px" y="0px" width="64px" height="64px" viewBox="0 0 32 32"><path fill="#ffffff" d="M26,14h-8v-2h8V14z M26,16h-5v2h5V16z M7.072,20.344l1.414-1.414L2.83,13.273l5.656-5.66L5.658,4.785 L1.416,9.031l1.414,1.414L0,13.273L7.072,20.344z M5.658,13.273l8.484,8.482l4.242-4.242L9.9,9.031L5.658,13.273z M15.557,23.172 l4.242,1.414L21.213,26l1.414-1.414l-1.414-1.414l-1.414-4.242L15.557,23.172z M10,0v4h12v6h6v18H10v-4H6v8h26V8l-8-8H10z"></path></svg>
