<!-- Modulus Futuramo Icons 2014 --><svg xmlns="http://www.w3.org/2000/svg" x="0px" y="0px" width="64px" height="64px" viewBox="0 0 32 32"><path fill="#ffffff" d="M25.372,20l0.144,0.01L25.512,20l-1.949-4.852L28,12.367l-4.437-2.781l1.953-4.861l-5.227,0.359L19.02,0 L15,3.367L10.98,0L9.711,5.084L4.484,4.723l1.953,4.863L2,12.367l4.438,2.781L4.488,20l-0.004,0.01L4.627,20H10L4,32h8l3-10.767 L18,32h8l-6-12H25.372z M15,7.367c2.762,0,5,2.238,5,5s-2.238,5-5,5c-2.762,0-5-2.238-5-5S12.238,7.367,15,7.367z"></path></svg>
