<!-- Modulus Futuramo Icons 2014 --><svg xmlns="http://www.w3.org/2000/svg" x="0px" y="0px" width="64px" height="64px" viewBox="0 0 32 32"><path fill="#ffffff" d="M16,32v-4H4.057c0.109-1.886,0.422-3.533,1.307-5.045C7.127,19.945,10.517,18,13.999,18 c1.523,0,3.006,0.382,4.353,1.04l3.27-2.725c-1.03-0.666-2.141-1.208-3.31-1.593c2.214-1.423,3.69-3.894,3.69-6.722 c0-4.418-3.581-8-8-8c-4.418,0-8,3.582-8,8c0,2.827,1.475,5.298,3.688,6.721c-3.218,1.056-6.033,3.235-7.777,6.213 C-0.123,24.409,0.001,28.13,0.001,32H16z M14.001,4c2.206,0,4,1.794,4,4s-1.794,4-4,4c-2.206,0-4-1.794-4-4S11.796,4,14.001,4z  M26.472,21.138L32,21.983l-4,4.1l0.944,5.789L24,29.138l-4.944,2.733L20,26.083l-4-4.1l5.528-0.845L24,15.871L26.472,21.138z"></path></svg>
