<!-- Modulus Futuramo Icons 2014 --><svg xmlns="http://www.w3.org/2000/svg" x="0px" y="0px" width="64px" height="64px" viewBox="0 0 32 32"><path fill="#ffffff" d="M16,11c-0.736,0-1.373,0.4-1.721,0.992c-0.174,0.297-0.281,0.641-0.281,1.01 c0,1.105,0.895,2.002,2.002,2.002c1.107,0,2.002-0.896,2.002-2.002c0-0.369-0.108-0.713-0.281-1.01C17.373,11.4,16.736,11,16,11z  M7.518,21.482C5.346,19.309,4,16.309,4,13c0-3.307,1.346-6.307,3.518-8.48L4.685,1.688C1.793,4.582,0,8.582,0,13 c0,4.418,1.793,8.418,4.685,11.315L7.518,21.482z M24.48,4.52C26.652,6.693,28,9.693,28,13.002c0,3.307-1.348,6.307-3.52,8.48 l2.832,2.832C30.211,21.42,32,17.42,32,13.002c0-4.418-1.789-8.418-4.688-11.315L24.48,4.52z M23.072,20.072 C24.879,18.262,26,15.762,26,13s-1.121-5.262-2.928-7.072L20.24,8.76C21.328,9.846,22,11.346,22,13s-0.672,3.154-1.76,4.24 L23.072,20.072z M8.93,5.93C7.119,7.74,6,10.24,6,13c0,2.762,1.119,5.262,2.93,7.072l2.828-2.83C10.672,16.156,10,14.656,10,13 c0-1.654,0.672-3.154,1.758-4.24L8.93,5.93z M20,32h-8l3-15h2L20,32z"></path></svg>
