<!-- Modulus Futuramo Icons 2014 --><svg xmlns="http://www.w3.org/2000/svg" x="0px" y="0px" width="64px" height="64px" viewBox="0 0 32 32"><path fill="#ffffff" d="M16,32c8.837,0,16-7.163,16-16S24.837,0,16,0S0,7.163,0,16S7.164,32,16,32z M4.7,12H16V6l6,6h5.3 c0.445,1.253,0.7,2.596,0.7,4c0,6.617-5.383,12-12,12S4,22.617,4,16C4,14.596,4.255,13.253,4.7,12z M6.844,20h18.311 c-1.544,3.528-5.057,6-9.156,6S8.389,23.528,6.844,20z M20,16c0-1.105,0.895-2,2-2s2,0.895,2,2c0,1.105-0.895,2-2,2S20,17.105,20,16 z M8,16c0-1.105,0.895-2,2-2s2,0.895,2,2c0,1.105-0.895,2-2,2S8,17.105,8,16z"></path></svg>
