<!-- Modulus Futuramo Icons 2014 --><svg xmlns="http://www.w3.org/2000/svg" x="0px" y="0px" width="64px" height="64px" viewBox="0 0 32 32"><path fill="#ffffff" d="M24,10.425V6h-2.021c-0.113-2.169-1.201-5.846-4.749-5.994c-2.722-0.111-3.991,1.258-5.104,2.467 c-0.318,0.347-0.642,0.701-1.015,1.025c-0.528,0.461-0.977,0.795-1.374,1.051l0.186-3.037L6.639,4.161L2.088,0l1.687,6L0,7.883 L3.936,9.4l-1.41,6.475l4.436-4.914l3.518,2.327L9.824,9.121L13.6,7.239L10.879,6.19c0.464-0.304,0.974-0.686,1.546-1.184 c0.429-0.374,0.805-0.779,1.172-1.179c1.014-1.102,1.764-1.901,3.549-1.823C19.488,2.103,19.905,5.032,19.98,6H18v4.425 c-4.615,1.307-8,5.542-8,10.575c0,6.074,4.926,11,11,11s11-4.926,11-11C32,15.967,28.614,11.733,24,10.425z M21,28 c-3.86,0-7-3.14-7-7s3.14-7,7-7s7,3.14,7,7S24.86,28,21,28z"></path></svg>
