<!-- Modulus Futuramo Icons 2014 --><svg xmlns="http://www.w3.org/2000/svg" x="0px" y="0px" width="64px" height="64px" viewBox="0 0 32 32"><path fill="#ffffff" d="M6,32c-4.5,0,0-6,0-6S10.5,32,6,32z M31.451,5.474c0.316,0.377,0.311,0.928-0.012,1.299l-3.426,3.938 l0.033,0.04l-0.451,5.154c-0.016,0.177-0.238,0.248-0.353,0.111l-2.261-2.694l-10.725,8.999l-9.173,1.514l2.745-9.174l10.725-8.999 l-2.261-2.694c-0.115-0.136-0.007-0.343,0.171-0.328l5.154,0.451l4.509-2.66c0.421-0.248,0.96-0.156,1.274,0.219L31.451,5.474z  M23.054,11.024L20.483,7.96l-6.128,5.142l2.571,3.064L23.054,11.024z"></path></svg>
