<!-- Modulus Futuramo Icons 2014 --><svg xmlns="http://www.w3.org/2000/svg" x="0px" y="0px" width="64px" height="64px" viewBox="0 0 32 32"><path fill="#ffffff" d="M23.284,15.907c2.906-1.785,5.134-4.568,6.128-7.907h-4.26c-0.82,1.868-2.202,3.425-3.92,4.491 c-0.615-0.671-1.294-1.25-2.054-1.662c0.983-0.817,1.656-1.99,1.792-3.33C23.398,5.888,25,3.132,25,0h-3 c0,1.675-0.691,3.19-1.802,4.279c-0.002,0.002-0.007,0.002-0.009,0.004C19.297,2.912,17.758,2,16,2s-3.297,0.912-4.189,2.283 c-0.003-0.003-0.009-0.004-0.012-0.006C10.69,3.188,10,1.674,10,0H7c0,3.132,1.602,5.888,4.029,7.5 c0.136,1.34,0.81,2.513,1.792,3.33c-0.759,0.412-1.438,0.991-2.054,1.662C9.05,11.425,7.667,9.868,6.848,8h-4.26 c0.995,3.339,3.222,6.122,6.128,7.907C8.476,16.573,8.28,17.267,8.161,18H0v4h8.161c0.119,0.733,0.315,1.427,0.555,2.093 C5.81,25.878,3.582,28.661,2.587,32h4.26c0.82-1.868,2.202-3.425,3.92-4.491C12.173,29.041,13.989,30,16,30s3.827-0.959,5.232-2.491 c1.718,1.066,3.1,2.623,3.92,4.491h4.26c-0.995-3.339-3.222-6.122-6.128-7.907c0.24-0.665,0.436-1.36,0.555-2.093H32v-4h-8.161 C23.72,17.267,23.524,16.573,23.284,15.907z"></path></svg>
