<!-- Modulus Futuramo Icons 2014 --><svg xmlns="http://www.w3.org/2000/svg" x="0px" y="0px" width="64px" height="64px" viewBox="0 0 32 32"><path fill="#ffffff" d="M25,18c-0.085,0-0.163,0.022-0.247,0.025L22.854,6H18v2h3.146l0.386,2.446l-7.735,12.946 c-0.468-1.98-1.777-3.614-3.528-4.546L12.004,14H14v-2H8v2h1.879l-1.484,4.141C7.944,18.049,7.478,18,7,18c-3.866,0-7,3.134-7,7 s3.134,7,7,7c3.523,0,6.41-2.612,6.899-6h0.668l7.451-12.471l0.768,4.862C20.012,19.322,18,21.912,18,25c0,3.866,3.134,7,7,7 s7-3.134,7-7S28.866,18,25,18z M10.858,24H8.421l0.826-2.306C10.036,22.233,10.611,23.051,10.858,24z M7,29c-2.206,0-4-1.794-4-4 s1.794-4,4-4c0.123,0,0.238,0.025,0.358,0.036L5.579,26h5.279C10.411,27.72,8.858,29,7,29z M25,29c-2.206,0-4-1.794-4-4 c0-1.581,0.929-2.938,2.264-3.587l0.749,4.743l1.975-0.313l-0.761-4.821C27.325,21.143,29,22.872,29,25C29,27.206,27.206,29,25,29z"></path></svg>
