<!-- Modulus Futuramo Icons 2014 --><svg xmlns="http://www.w3.org/2000/svg" x="0px" y="0px" width="64px" height="64px" viewBox="0 0 32 32"><path fill="#ffffff" d="M8,2c0-1.105,0.895-2,2-2c1.105,0,2,0.895,2,2s-0.895,2-2,2C8.895,4,8,3.105,8,2z M17,6c1.656,0,3-1.344,3-3 s-1.344-3-3-3c-1.656,0-3,1.344-3,3S15.344,6,17,6z M8,10c1.105,0,2-0.895,2-2S9.105,6,8,6C6.895,6,6,6.895,6,8S6.895,10,8,10z M3,4 c0.553,0,1-0.447,1-1S3.553,2,3,2C2.447,2,2,2.447,2,3S2.447,4,3,4z M16,32H6v-4l8-12.6V10h-2V8h2h6h2v2h-2v5.4L28,28v4H16z  M10.738,28H16h7.262L17,18.138L10.738,28z"></path></svg>
