<!-- Modulus Futuramo Icons 2014 --><svg xmlns="http://www.w3.org/2000/svg" x="0px" y="0px" width="64px" height="64px" viewBox="0 0 32 32"><path fill="#ffffff" d="M24,0c-2.977,0-5.543,1.644-6.92,4.055C16.723,4.027,16.364,4,16,4s-0.723,0.027-1.08,0.055 C13.543,1.644,10.977,0,8,0C3.58,0,0,3.581,0,8c0,2.337,1.02,4.421,2.617,5.883l0.001-0.003C2.218,15.183,2,16.566,2,18 c0,7.732,6.268,14,14,14s14-6.268,14-14c0-1.434-0.218-2.817-0.618-4.12l0.001,0.003C30.98,12.421,32,10.337,32,8 C32,3.581,28.42,0,24,0z M4.539,9.975c0-0.001,0.001-0.003,0.001-0.003C4.207,9.387,4,8.72,4,8c0-2.205,1.795-4,4-4 c1.035,0,1.969,0.405,2.68,1.053l0.002,0C8.19,6.077,6.065,7.799,4.539,9.975z M16,28c-5.514,0-10-4.486-10-10S10.486,8,16,8 s10,4.486,10,10S21.514,28,16,28z M27.461,9.975c-1.526-2.176-3.651-3.898-6.143-4.923l0.002,0C22.031,4.405,22.965,4,24,4 c2.205,0,4,1.795,4,4c0,0.72-0.207,1.387-0.541,1.971C27.459,9.971,27.461,9.974,27.461,9.975z M10,14c0-1.104,0.895-2,2-2 s2,0.896,2,2s-0.895,2-2,2S10,15.104,10,14z M22,14c0,1.104-0.895,2-2,2s-2-0.896-2-2s0.895-2,2-2S22,12.896,22,14z M20,18h2 c0,3.313-2.687,6-6,6s-6-2.687-6-6h2c0,2.206,1.794,4,4,4S20,20.206,20,18z"></path></svg>
