<?xml version="1.0" encoding="utf-8"?>
<!-- Generator: Adobe Illustrator 18.1.1, SVG Export Plug-In . SVG Version: 6.00 Build 0)  -->
<svg version="1.1" id="Layer_1" xmlns="http://www.w3.org/2000/svg" xmlns:xlink="http://www.w3.org/1999/xlink" x="0px" y="0px"
	 viewBox="0 0 184 109.1" enable-background="new 0 0 184 109.1" xml:space="preserve">
<path fill="#ED2E7A" d="M164.2,13c0-5.9-5.9-10.6-11.3-10.6c0,0-42.9-2.4-57.2-2.4c-16.2,0-65,2.4-65,2.4c-5.3,0-11.1,4.7-11.1,10.6
	v86h144.6V13z M92.9,5.1c0.5,0,0.8,0.4,0.9,1c0,0.6-0.4,1-0.9,1S92,6.6,92,6.1C92,5.5,92.4,5.1,92.9,5.1z M158,91.7
	c0,0.7-0.5,1.3-1.1,1.3H27.7c-0.6,0-1-0.7-1-1.3V12.4c0-0.7,0.4-1.2,1-1.2h129.2c0.5,0,1.1,0.6,1.1,1.2V91.7z"/>
<path fill="#ED2E7A" d="M183.2,99.2H0.7C0.3,99.2,0,99.5,0,100v1.4c0,0.4,0.3,1,0.7,1h0.5v1.4c0,2.9,2.3,5.3,5,5.3h172.1
	c2.7,0,5-2.5,5-5.3v-1.6c0.2,0,0.7-0.3,0.7-0.8V100C184,99.5,183.6,99.2,183.2,99.2z M165.7,105.1h-16.3c-0.7,0-1.3-0.6-1.3-1.4
	s0.6-1.4,1.3-1.4h16.3c0.7,0,1.3,0.6,1.3,1.4S166.4,105.1,165.7,105.1z"/>
<rect x="22.7" y="10" opacity="0.65" fill="#ED2E7A" enable-background="new    " width="138.2" height="86.9"/>
</svg>
