<?xml version="1.0" encoding="utf-8"?>
<!-- Generator: Adobe Illustrator 18.1.1, SVG Export Plug-In . SVG Version: 6.00 Build 0)  -->
<svg version="1.1" id="Layer_1" xmlns="http://www.w3.org/2000/svg" xmlns:xlink="http://www.w3.org/1999/xlink" x="0px" y="0px"
	 viewBox="0 0 104.3 206.5" enable-background="new 0 0 104.3 206.5" xml:space="preserve">
<path fill="none" stroke="#219E97" stroke-width="9" stroke-linecap="round" stroke-linejoin="round" stroke-miterlimit="10" d="
	M6.5,4.5c0,0-2,0-2,2V200c0,0,0,2,2,2h91.3c0,0,2,0,2-2V6.5c0,0,0-2-2-2H6.5z"/>
<path fill="#219E97" d="M97,166.6H6.1V16.9H97V166.6z M101.9,5.7H1.3v194.5h100.6V5.7z"/>
<rect x="5.7" y="17.1" opacity="0.49" fill="#219E97" enable-background="new    " width="91" height="150"/>
<path fill="#ED2E7A" d="M52.1,75.6c-4.9,0-8.9,4-8.9,8.9s4,8.9,8.9,8.9s8.9-4,8.9-8.9S57,75.6,52.1,75.6 M52.1,77.8
	c3.7,0,6.7,3,6.7,6.7s-3,6.7-6.7,6.7s-6.7-3-6.7-6.7S48.5,77.8,52.1,77.8 M52.1,62.3c-6.1,0-11.7,2.5-15.7,6.5s-6.5,9.6-6.5,15.7
	c0,13.7,8.2,15.1,13.7,25.8c5.5,10.7,8.5,23,8.5,23s2.9-12.3,8.5-23c5.5-10.7,13.7-12.1,13.7-25.8c0-6.1-2.5-11.7-6.5-15.7
	S58.3,62.3,52.1,62.3 M52.1,64.5c5.3,0,10.3,2.1,14.1,5.8C70,74.1,72,79.1,72,84.4c0,7.9-2.9,11.2-6.6,15.3
	c-2.2,2.5-4.7,5.3-6.9,9.4c-2.9,5.5-5,11.4-6.5,15.9c-1.4-4.5-3.6-10.4-6.5-15.9c-2.1-4.1-4.6-6.9-6.9-9.4
	c-3.7-4.1-6.6-7.4-6.6-15.3c0-5.3,2.1-10.3,5.8-14.1C41.8,66.6,46.8,64.5,52.1,64.5"/>
</svg>
