<?xml version="1.0" encoding="utf-8"?>
<!-- Generator: Adobe Illustrator 18.1.1, SVG Export Plug-In . SVG Version: 6.00 Build 0)  -->
<svg version="1.1" id="Layer_1" xmlns="http://www.w3.org/2000/svg" xmlns:xlink="http://www.w3.org/1999/xlink" x="0px" y="0px"
	 viewBox="0 0 108.5 209" enable-background="new 0 0 108.5 209" xml:space="preserve">
<path opacity="0.24" fill="#CFD6CF" enable-background="new    " d="M99.3,176.2c0.7,0,1.3-0.6,1.3-1.3V38.3c0-0.7-0.6-1.3-1.3-1.3
	H9.7c-0.7,0-1.3,0.6-1.3,1.3v136.6c0,0.7,0.6,1.3,1.3,1.3L99.3,176.2L99.3,176.2z"/>
<path opacity="0.5" fill="#CFD6CF" enable-background="new    " d="M100.6,174.9c0,0.7-0.6,1.3-1.3,1.3H9.7c-0.7,0-1.3-0.6-1.3-1.3
	V38.3C8.4,37.6,9,37,9.7,37h89.6c0.7,0,1.3,0.6,1.3,1.3V174.9z M54.4,199.4c-4.9,0-8.9-4-8.9-8.9s4-8.9,8.9-8.9s8.9,4,8.9,8.9
	S59.3,199.4,54.4,199.4 M47.2,21.1h14.5c1.1,0,2,1,2,2.1s-0.9,2.1-2,2.1H47.2c-1.1,0-2-1-2-2.1C45.3,22.1,46.1,21.1,47.2,21.1
	 M108.5,24.7c0-13.6-11-24.7-24.7-24.7H24.7C11.1,0,0,11,0,24.7v159.6C0,197.9,11,209,24.7,209h59.1c13.6,0,24.7-11,24.7-24.7V24.7z
	"/>
<path fill="#ED2E7A" d="M53,106.9v9h-6l9,12l9-12h-6v-9H53z M80,102.2c0,7.4-5,13.7-12,15.9v-6.5c3.6-1.8,6-5.3,6-9.4
	c0-5.9-5.1-10.8-11.4-10.8c-0.9,0-1.8,0.1-2.9,0.4l-1.6,0.4L56.9,91c-1.4-1.4-3.3-2.1-5.4-2.1c-4.1,0-7.5,3.1-7.5,7
	c0,1.2,0.4,3,0.4,3s-6.4,1.6-6.4,7.3c0,3.3,2.6,6.1,6,6.6v6c-6.7-0.6-12-6-12-12.6c0-4.4,2.3-8.3,6-10.7c0.2-7,6.2-12.6,13.5-12.6
	c3,0,5.9,1,8.3,2.7c1-0.2,1.9-0.2,2.8-0.2C72.2,85.4,80,92.9,80,102.2"/>
</svg>
