<?xml version="1.0" encoding="utf-8"?>
<!-- Generator: Adobe Illustrator 18.1.1, SVG Export Plug-In . SVG Version: 6.00 Build 0)  -->
<svg version="1.1" id="Layer_1" xmlns="http://www.w3.org/2000/svg" xmlns:xlink="http://www.w3.org/1999/xlink" x="0px" y="0px"
	 viewBox="0 0 233.2 116.1" enable-background="new 0 0 233.2 116.1" xml:space="preserve">
<rect x="71.6" y="9.2" opacity="0.48" fill="#ED2E7A" enable-background="new    " width="136.1" height="96.3"/>
<path opacity="0.7" fill="#ED2E7A" enable-background="new    " d="M71.6,9.1h136.1v96.3H71.6V9.1z M222.5,72.9
	c-0.8,0-1.5-0.7-1.5-1.6c0,0,0,0,0-0.1l0,0V45.7l0,0c0-0.8,0.7-1.5,1.5-1.5s1.5,0.7,1.5,1.5l0,0v25.5l0,0c0,0,0,0,0,0.1
	C224,72.2,223.4,72.9,222.5,72.9 M54.8,116.1H213c0,0,20.2,0,20.2-21.4V21.4c0,0,0-21.4-20.2-21.4H54.8c0,0-4.8,0-4.8,5.1V111
	C50,111,50,116.1,54.8,116.1 M26.7,106.9c-3.3,0-6-2.8-6-6.4c0-3.5,2.7-6.4,6-6.4s6,2.9,6,6.4C32.7,104.1,30,106.9,26.7,106.9
	 M26.7,85.8c-3.3,0-6-2.8-6-6.4s2.7-6.4,6-6.4s6,2.9,6,6.4S30,85.8,26.7,85.8 M26.7,64.7c-3.3,0-6-2.9-6-6.4s2.7-6.4,6-6.4
	s6,2.8,6,6.4S30,64.7,26.7,64.7 M26.7,43.5c-3.3,0-6-2.9-6-6.4s2.7-6.4,6-6.4s6,2.8,6,6.4C32.7,40.7,30,43.5,26.7,43.5 M26.7,22.4
	c-3.3,0-6-2.9-6-6.4s2.7-6.4,6-6.4s6,2.8,6,6.4C32.7,19.5,30,22.4,26.7,22.4 M20.2,116.1h22.6c0,0,4.8,0,4.8-5.1V73.8l0,0h-3.4
	c-4.9,0-4.9-5.1-4.9-5.1V47.8c0-5.1,4.9-5.1,4.9-5.1h3.4l0,0V5.1c0,0,0-5.1-4.8-5.1H20.2C20.2,0,0,0,0,21.4v73.3
	C0,94.7,0,116.1,20.2,116.1"/>
<path fill="#ECF0EB" d="M134.7,81.1c-14.4,0-26.1-11-26.1-24.6s11.7-24.6,26.1-24.6s26.1,11,26.1,24.6S149.1,81.1,134.7,81.1"/>
<path fill="#85ABBB" d="M134.7,30.4c-15.4,0-27.9,11.7-27.9,26.2s12.5,26.2,27.9,26.2s27.9-11.7,27.9-26.2S150.1,30.4,134.7,30.4
	 M134.7,33.6c13.4,0,24.4,10.3,24.4,22.9c0,12.6-10.9,22.9-24.4,22.9c-13.4,0-24.4-10.3-24.4-22.9S121.3,33.6,134.7,33.6"/>
<line fill="none" stroke="#B97800" stroke-miterlimit="10" x1="147.5" y1="44.5" x2="130" y2="61"/>
<rect x="133.5" y="38" fill="#4D4D4D" width="2.3" height="19.7"/>
<rect x="133.5" y="55.5" fill="#4D4D4D" width="16.3" height="2.2"/>
<path fill="#4D4D4D" d="M137,56.6c0,1.2-1,2.2-2.3,2.2s-2.3-1-2.3-2.2s1-2.2,2.3-2.2S137,55.4,137,56.6"/>
</svg>
