<?xml version="1.0" encoding="utf-8"?>
<!-- Generator: Adobe Illustrator 18.1.0, SVG Export Plug-In . SVG Version: 6.00 Build 0)  -->
<!DOCTYPE svg PUBLIC "-//W3C//DTD SVG 1.1//EN" "http://www.w3.org/Graphics/SVG/1.1/DTD/svg11.dtd">
<svg version="1.1" id="Warstwa_1" xmlns="http://www.w3.org/2000/svg" xmlns:xlink="http://www.w3.org/1999/xlink" x="0px" y="0px"
	 width="112px" height="112px" viewBox="0 0 112 112" enable-background="new 0 0 112 112" xml:space="preserve">
<rect y="0" opacity="0.5" fill="#213D4E" width="112" height="112"/>
<path fill="#219E97" d="M16.7,85.5c0,0.8-0.3,1.4-0.9,1.9c-0.6,0.5-1.4,0.7-2.4,0.7c-0.9,0-1.8-0.2-2.5-0.5v-1.7
	c0.6,0.3,1.1,0.5,1.5,0.6c0.4,0.1,0.8,0.2,1.1,0.2c0.4,0,0.7-0.1,0.9-0.2c0.2-0.2,0.3-0.4,0.3-0.7c0-0.2,0-0.3-0.1-0.5
	c-0.1-0.1-0.2-0.3-0.4-0.4c-0.2-0.1-0.6-0.3-1.1-0.6c-0.5-0.3-0.9-0.5-1.2-0.7c-0.3-0.2-0.5-0.5-0.6-0.8C11.1,82.3,11,82,11,81.5
	c0-0.8,0.3-1.4,0.8-1.8c0.5-0.4,1.3-0.7,2.2-0.7c0.5,0,0.9,0.1,1.3,0.2s0.9,0.3,1.3,0.5L16,81.1c-0.5-0.2-0.9-0.3-1.2-0.4
	c-0.3-0.1-0.6-0.1-0.9-0.1c-0.4,0-0.6,0.1-0.8,0.2c-0.2,0.2-0.3,0.4-0.3,0.6c0,0.2,0,0.3,0.1,0.4c0.1,0.1,0.2,0.2,0.4,0.4
	c0.2,0.1,0.6,0.3,1.2,0.6c0.8,0.4,1.4,0.8,1.7,1.2C16.5,84.5,16.7,85,16.7,85.5z"/>
<path fill="#219E97" d="M22.1,80.6c-0.7,0-1.2,0.3-1.6,0.8c-0.4,0.5-0.6,1.3-0.6,2.2c0,2,0.7,3,2.2,3c0.6,0,1.4-0.2,2.3-0.5v1.6
	c-0.7,0.3-1.5,0.5-2.4,0.5c-1.3,0-2.3-0.4-2.9-1.2c-0.7-0.8-1-1.9-1-3.4c0-0.9,0.2-1.7,0.5-2.4c0.3-0.7,0.8-1.2,1.4-1.6
	c0.6-0.4,1.4-0.6,2.2-0.6c0.9,0,1.7,0.2,2.6,0.6L24,81.2c-0.3-0.2-0.7-0.3-1-0.4C22.7,80.6,22.4,80.6,22.1,80.6z"/>
<path fill="#219E97" d="M28,84.6V88h-1.9v-8.8h2.6c1.2,0,2.1,0.2,2.7,0.7c0.6,0.4,0.9,1.1,0.9,2c0,0.5-0.1,1-0.4,1.4s-0.7,0.7-1.2,1
	c1.3,2,2.2,3.3,2.6,3.8h-2.1L29,84.6H28z M28,83.1h0.6c0.6,0,1-0.1,1.3-0.3s0.4-0.5,0.4-0.9c0-0.4-0.1-0.7-0.4-0.9
	c-0.3-0.2-0.7-0.3-1.3-0.3H28V83.1z"/>
<path fill="#219E97" d="M42.1,83.6c0,1.5-0.4,2.6-1.1,3.4c-0.7,0.8-1.8,1.2-3.1,1.2c-1.4,0-2.4-0.4-3.1-1.2
	c-0.7-0.8-1.1-1.9-1.1-3.4s0.4-2.6,1.1-3.4c0.7-0.8,1.8-1.2,3.1-1.2s2.4,0.4,3.1,1.2C41.8,81,42.1,82.1,42.1,83.6z M35.7,83.6
	c0,1,0.2,1.7,0.6,2.2c0.4,0.5,0.9,0.7,1.7,0.7c1.5,0,2.2-1,2.2-3c0-2-0.7-3-2.2-3c-0.7,0-1.3,0.3-1.7,0.8S35.7,82.6,35.7,83.6z"/>
<path fill="#219E97" d="M44,88v-8.8h1.9v7.3h3.6V88H44z"/>
<path fill="#219E97" d="M50.9,88v-8.8h1.9v7.3h3.6V88H50.9z"/>
<path fill="#219E97" d="M68.4,83.5c0,1.5-0.4,2.6-1.2,3.3s-2,1.2-3.6,1.2h-2.5v-8.8h2.8c1.4,0,2.6,0.4,3.4,1.1
	C68,81.1,68.4,82.1,68.4,83.5z M66.5,83.5c0-1.9-0.8-2.8-2.5-2.8h-1v5.7h0.8C65.6,86.4,66.5,85.5,66.5,83.5z"/>
<path fill="#219E97" d="M78.3,83.6c0,1.5-0.4,2.6-1.1,3.4c-0.7,0.8-1.8,1.2-3.1,1.2c-1.4,0-2.4-0.4-3.1-1.2
	c-0.7-0.8-1.1-1.9-1.1-3.4s0.4-2.6,1.1-3.4s1.8-1.2,3.1-1.2s2.4,0.4,3.1,1.2C77.9,81,78.3,82.1,78.3,83.6z M71.8,83.6
	c0,1,0.2,1.7,0.6,2.2c0.4,0.5,0.9,0.7,1.7,0.7c1.5,0,2.2-1,2.2-3c0-2-0.7-3-2.2-3c-0.7,0-1.3,0.3-1.7,0.8
	C72,81.8,71.8,82.6,71.8,83.6z"/>
<path fill="#219E97" d="M88.7,88h-2.1l-1.2-4.6c0-0.2-0.1-0.5-0.2-1c-0.1-0.5-0.2-0.9-0.2-1c0,0.2-0.1,0.6-0.2,1
	c-0.1,0.5-0.2,0.8-0.2,1L83.3,88h-2.1L79,79.2h1.8l1.1,4.8c0.2,0.9,0.3,1.7,0.4,2.3c0-0.2,0.1-0.6,0.2-1.1c0.1-0.5,0.2-0.9,0.2-1.1
	l1.3-4.9h1.8l1.3,4.9c0.1,0.2,0.1,0.6,0.2,1c0.1,0.5,0.1,0.8,0.2,1.2c0-0.3,0.1-0.7,0.2-1.2c0.1-0.5,0.2-0.8,0.2-1.1l1.1-4.8h1.8
	L88.7,88z"/>
<path fill="#219E97" d="M100,88h-2.4l-3.8-6.7h-0.1c0.1,1.2,0.1,2,0.1,2.5V88h-1.7v-8.8h2.4l3.8,6.6h0c-0.1-1.1-0.1-2-0.1-2.4v-4.2
	h1.7V88z"/>
<path fill="#219E97" d="M21.1,103.4h-1.9v-7.3h-2.4v-1.6h6.7v1.6h-2.4V103.4z"/>
<path fill="#219E97" d="M32.8,99c0,1.5-0.4,2.6-1.1,3.4c-0.7,0.8-1.8,1.2-3.1,1.2c-1.4,0-2.4-0.4-3.1-1.2c-0.7-0.8-1.1-1.9-1.1-3.4
	s0.4-2.6,1.1-3.4c0.7-0.8,1.8-1.2,3.1-1.2s2.4,0.4,3.1,1.2C32.4,96.4,32.8,97.5,32.8,99z M26.3,99c0,1,0.2,1.7,0.6,2.2
	c0.4,0.5,0.9,0.7,1.7,0.7c1.5,0,2.2-1,2.2-3c0-2-0.7-3-2.2-3c-0.7,0-1.3,0.3-1.7,0.8S26.3,98,26.3,99z"/>
<path fill="#219E97" d="M43,101c0,0.8-0.3,1.4-0.9,1.9c-0.6,0.5-1.4,0.7-2.4,0.7c-0.9,0-1.8-0.2-2.5-0.5v-1.7
	c0.6,0.3,1.1,0.5,1.5,0.6c0.4,0.1,0.8,0.2,1.1,0.2c0.4,0,0.7-0.1,0.9-0.2c0.2-0.2,0.3-0.4,0.3-0.7c0-0.2,0-0.3-0.1-0.5
	c-0.1-0.1-0.2-0.3-0.4-0.4c-0.2-0.1-0.6-0.3-1.1-0.6c-0.5-0.3-0.9-0.5-1.2-0.7c-0.3-0.2-0.5-0.5-0.6-0.8c-0.2-0.3-0.2-0.7-0.2-1.1
	c0-0.8,0.3-1.4,0.8-1.8c0.5-0.4,1.3-0.7,2.2-0.7c0.5,0,0.9,0.1,1.3,0.2s0.9,0.3,1.3,0.5l-0.6,1.5c-0.5-0.2-0.9-0.3-1.2-0.4
	c-0.3-0.1-0.6-0.1-0.9-0.1c-0.4,0-0.6,0.1-0.8,0.2c-0.2,0.2-0.3,0.4-0.3,0.6c0,0.2,0,0.3,0.1,0.4c0.1,0.1,0.2,0.2,0.4,0.4
	c0.2,0.1,0.6,0.3,1.2,0.6c0.8,0.4,1.4,0.8,1.7,1.2C42.9,99.9,43,100.4,43,101z"/>
<path fill="#219E97" d="M49.8,103.4h-5.1v-8.8h5.1v1.5h-3.2v1.9h3v1.5h-3v2.3h3.2V103.4z"/>
<path fill="#219E97" d="M56.7,103.4h-5.1v-8.8h5.1v1.5h-3.2v1.9h3v1.5h-3v2.3h3.2V103.4z"/>
<path fill="#219E97" d="M65.5,103.4l-2.1-6.9h-0.1c0.1,1.4,0.1,2.3,0.1,2.8v4.1h-1.7v-8.8h2.5l2.1,6.7h0l2.2-6.7h2.5v8.8h-1.7v-4.2
	c0-0.2,0-0.4,0-0.7c0-0.3,0-0.9,0.1-2.1h-0.1l-2.3,6.9H65.5z"/>
<path fill="#219E97" d="M81.5,99c0,1.5-0.4,2.6-1.1,3.4c-0.7,0.8-1.8,1.2-3.1,1.2c-1.4,0-2.4-0.4-3.1-1.2c-0.7-0.8-1.1-1.9-1.1-3.4
	s0.4-2.6,1.1-3.4s1.8-1.2,3.1-1.2s2.4,0.4,3.1,1.2C81.1,96.4,81.5,97.5,81.5,99z M75,99c0,1,0.2,1.7,0.6,2.2
	c0.4,0.5,0.9,0.7,1.7,0.7c1.5,0,2.2-1,2.2-3c0-2-0.7-3-2.2-3c-0.7,0-1.3,0.3-1.7,0.8C75.2,97.3,75,98,75,99z"/>
<path fill="#219E97" d="M85.2,100.1v3.4h-1.9v-8.8h2.6c1.2,0,2.1,0.2,2.7,0.7c0.6,0.4,0.9,1.1,0.9,2c0,0.5-0.1,1-0.4,1.4
	c-0.3,0.4-0.7,0.7-1.2,1c1.3,2,2.2,3.3,2.6,3.8h-2.1l-2.1-3.4H85.2z M85.2,98.5h0.6c0.6,0,1-0.1,1.3-0.3c0.3-0.2,0.4-0.5,0.4-0.9
	c0-0.4-0.1-0.7-0.4-0.9c-0.3-0.2-0.7-0.3-1.3-0.3h-0.6V98.5z"/>
<path fill="#219E97" d="M96.7,103.4h-5.1v-8.8h5.1v1.5h-3.2v1.9h3v1.5h-3v2.3h3.2V103.4z"/>
<path fill="#219E97" d="M98.3,102.6c0-0.3,0.1-0.6,0.3-0.8c0.2-0.2,0.4-0.3,0.8-0.3c0.3,0,0.6,0.1,0.8,0.3c0.2,0.2,0.3,0.4,0.3,0.8
	c0,0.3-0.1,0.6-0.3,0.8c-0.2,0.2-0.4,0.3-0.8,0.3c-0.3,0-0.6-0.1-0.8-0.3C98.4,103.2,98.3,102.9,98.3,102.6z M100.1,100.5h-1.5
	l-0.3-5.9h2.1L100.1,100.5z"/>
<path fill="#219E97" d="M79.5,20.8v12.4h9.3L76.4,45.5L64,33.1h9.3V20.8H79.5z M51.6,33.1c0,13.7,11.1,24.7,24.7,24.7
	s24.7-11.1,24.7-24.7S90,8.4,76.4,8.4S51.6,19.5,51.6,33.1"/>
</svg>
