<!-- Modulus Futuramo Icons 2014 --><svg xmlns="http://www.w3.org/2000/svg" x="0px" y="0px" width="64px" height="64px" viewBox="0 0 32 32"><path fill="#ffffff" d="M16,0v4H0v20h12v5H8v1h8v2h16V0H16z M1,23V5h15v18H1z M13,29v-5h3v5H13z M31,31H17v-1v-1v-5v-1V5V4V1h14V31z  M20,28h8v1h-8V28z M26,20c0-1.104-0.895-2-2-2s-2,0.896-2,2s0.895,2,2,2S26,21.104,26,20z M23,20c0-0.551,0.449-1,1-1s1,0.449,1,1 s-0.449,1-1,1S23,20.551,23,20z M30,10H18v4h12V10z M29,13H19v-2h10V13z M30,4H18v4h12V4z M29,7H19V5h10V7z"></path></svg>
