<!-- Modulus Futuramo Icons 2014 --><svg xmlns="http://www.w3.org/2000/svg" x="0px" y="0px" width="64px" height="64px" viewBox="0 0 32 32"><path fill="#ffffff" d="M29.962,7h-5.388c0.438-2.555,0.439-4,0.439-4h-20c0,0,0.001,1.445,0.439,4H1.037 c-0.452,5.895,3.249,11.196,8.519,13.159c0.813,1.844,1.769,3.796,2.897,5.841H9v6h12v-6h-3.428c1.05-1.902,1.953-3.726,2.727-5.455 C26.172,18.967,30.447,13.316,29.962,7z M28.999,8c-0.011,2.97-1.164,5.889-3.236,8.126c-1.375,1.484-3.082,2.577-4.939,3.217 c1.97-4.634,3.013-8.522,3.565-11.343H28.999z M5.237,16.126C3.164,13.889,2.011,10.97,2.001,8h3.636 c0.532,2.72,1.523,6.434,3.359,10.85C7.599,18.197,6.313,17.288,5.237,16.126z M20,27v4H10v-4H20z M13.596,26 C7.514,15.167,6.309,6.79,6.071,4h17.886c-0.233,2.784-1.426,11.135-7.527,22H13.596z"></path></svg>
