<!-- Modulus Futuramo Icons 2014 --><svg xmlns="http://www.w3.org/2000/svg" x="0px" y="0px" width="64px" height="64px" viewBox="0 0 32 32"><path fill="#ffffff" d="M25,18c-0.265,0-0.526,0.018-0.783,0.046L22.425,7H18v1h3.575l0.448,2.762L14.695,25H14 c0-2.771-1.615-5.159-3.951-6.294L12.163,13H15v-1H9v1h2.096l-1.974,5.33C8.453,18.117,7.74,18,7,18c-3.866,0-7,3.134-7,7 c0,3.866,3.134,7,7,7c3.526,0,6.434-2.609,6.92-6h1.385l6.987-13.577l0.942,5.81C20.225,19.017,18,21.745,18,25c0,3.866,3.134,7,7,7 s7-3.134,7-7C32,21.134,28.866,18,25,18z M13,25H7.718L9.7,19.649C11.654,20.64,13,22.663,13,25z M7,31c-3.308,0-6-2.692-6-6 s2.692-6,6-6c0.618,0,1.214,0.094,1.775,0.268L6.282,26h6.628C12.431,28.833,9.967,31,7,31z M25,31c-3.308,0-6-2.692-6-6 c0-2.752,1.865-5.071,4.395-5.775l1.112,6.855l0.987-0.16l-1.117-6.887C24.582,19.011,24.789,19,25,19c3.308,0,6,2.692,6,6 S28.308,31,25,31z"></path></svg>
