<!-- Modulus Futuramo Icons 2014 --><svg xmlns="http://www.w3.org/2000/svg" x="0px" y="0px" width="64px" height="64px" viewBox="0 0 32 32"><path fill="#ffffff" d="M24,10.425V6h-2.643V5.812c-0.025-1.947-0.954-5.667-4.292-5.806c-2.503-0.104-3.626,1.122-4.716,2.307 c-0.331,0.36-0.673,0.732-1.053,1.063c-0.606,0.528-1.112,0.895-1.56,1.171l0.186-3.035L6.639,4.161L2.088,0l1.687,6L0,7.883 L3.936,9.4l-1.41,6.475l4.436-4.914l3.518,2.327L9.824,9.121L13.6,7.239L9.68,5.728c0.627-0.317,1.363-0.804,2.274-1.598 c0.421-0.367,0.783-0.76,1.132-1.14c1.021-1.11,1.896-2.071,3.938-1.984c3.226,0.135,3.331,4.629,3.333,4.813V6H18v4.425 c-4.615,1.307-8,5.542-8,10.575c0,6.074,4.926,11,11,11s11-4.926,11-11C32,15.967,28.615,11.733,24,10.425z M11.124,7.356 L8.723,8.553l0.416,2.65L6.795,9.652l-2.492,2.761l0.792-3.638l-2.619-1.01l2.486-1.24L3.999,3.103l2.599,2.376l2.187-1.765 L8.666,5.66L8.621,6.391L11.124,7.356z M21,31c-5.514,0-10-4.486-10-10c0-4.447,2.991-8.4,7.273-9.613L19,11.181V7h4v4.181 l0.727,0.206C28.009,12.6,31,16.553,31,21C31,26.514,26.514,31,21,31z"></path></svg>
