<!-- Modulus Futuramo Icons 2014 --><svg xmlns="http://www.w3.org/2000/svg" x="0px" y="0px" width="64px" height="64px" viewBox="0 0 32 32"><path fill="#ffffff" d="M16,0C7.163,0,0,7.164,0,16s7.163,16,16,16s16-7.164,16-16S24.837,0,16,0z M16,31C7.729,31,1,24.271,1,16 c0-1.387,0.204-2.724,0.558-4H16V6l6,6h8.442C30.796,13.276,31,14.613,31,16C31,24.271,24.271,31,16,31z M24,16c0,1.105-0.895,2-2,2 s-2-0.895-2-2s0.895-2,2-2S24,14.895,24,16z M12,16c0,1.105-0.895,2-2,2s-2-0.895-2-2s0.895-2,2-2S12,14.895,12,16z M25.2,22 c-2.009,3.081-5.469,5-9.2,5s-7.191-1.919-9.2-5H25.2 M26.891,21H5.109C7.004,25.128,11.16,28,16,28S24.996,25.128,26.891,21 L26.891,21z"></path></svg>
