<!-- Modulus Futuramo Icons 2014 --><svg xmlns="http://www.w3.org/2000/svg" x="0px" y="0px" width="64px" height="64px" viewBox="0 0 32 32"><path fill="#ffffff" d="M22.559,20c0.328,0,0.635-0.161,0.822-0.43s0.23-0.613,0.115-0.92l-1.25-3.346l2.466-1.604 c0.284-0.184,0.455-0.5,0.455-0.838s-0.171-0.654-0.455-0.838l-2.466-1.604l1.083-2.8c0.124-0.319,0.075-0.68-0.128-0.955 c-0.204-0.275-0.534-0.428-0.875-0.403l-2.851,0.203l-0.688-2.862c-0.082-0.34-0.335-0.612-0.668-0.719 c-0.333-0.107-0.697-0.032-0.961,0.198L15,4.957l-2.157-1.876c-0.264-0.229-0.628-0.304-0.961-0.198s-0.586,0.379-0.668,0.719 l-0.688,2.862L7.675,6.259C7.333,6.235,7.003,6.387,6.799,6.662C6.595,6.938,6.547,7.298,6.67,7.617l1.083,2.801l-2.466,1.604 c-0.284,0.185-0.455,0.5-0.455,0.838s0.171,0.654,0.455,0.838l2.466,1.604l-1.25,3.346c-0.115,0.307-0.072,0.651,0.115,0.92 C6.806,19.839,7.113,20,7.441,20H11l-4.077,9.785c-0.206,0.494-0.151,1.058,0.146,1.503S7.865,32,8.4,32h2.357 c0.731,0,1.37-0.496,1.55-1.205L15,20.232l0,0l2.693,10.563C17.874,31.504,18.512,32,19.243,32H21.6 c0.535,0,1.035-0.267,1.331-0.712s0.351-1.009,0.146-1.503L19,20H22.559z M9.699,13c0-2.924,2.377-5.302,5.301-5.302 s5.301,2.378,5.301,5.302S17.924,18.302,15,18.302S9.699,15.924,9.699,13z"></path></svg>
