<?xml version="1.0" encoding="utf-8"?>
<!-- Generator: Adobe Illustrator 18.1.0, SVG Export Plug-In . SVG Version: 6.00 Build 0)  -->
<!DOCTYPE svg PUBLIC "-//W3C//DTD SVG 1.1//EN" "http://www.w3.org/Graphics/SVG/1.1/DTD/svg11.dtd">
<svg version="1.1" id="Warstwa_1" xmlns="http://www.w3.org/2000/svg" xmlns:xlink="http://www.w3.org/1999/xlink" x="0px" y="0px"
	 width="82px" height="82px" viewBox="0 0 82 82" enable-background="new 0 0 82 82" xml:space="preserve">
<path fill="#FFFFFF" d="M48,43.8c1.6-3.9-0.3-8.3-4.2-9.8c-3.9-1.6-8.3,0.3-9.8,4.2c-1.6,3.9,0.3,8.3,4.2,9.8
	C42,49.5,46.4,47.6,48,43.8 M58.7,48.1c-4,9.8-15.1,14.5-24.9,10.6c-9.8-4-14.6-15.1-10.6-24.9c4-9.8,15.1-14.5,24.9-10.6
	C58,27.2,62.7,38.3,58.7,48.1 M72.1,43.9c0.2-2.3,0.2-4.6-0.1-6.8l10-6.4l-5.5-13l-11.9,2.9c-1.2-1.4-2.6-2.8-4.1-4L63,5.3L49.9,0
	l-6,9.9c-2.2-0.2-4.5-0.2-6.7,0.1l-6.1-9.5L18.2,6l2.7,11.1c-1.5,1.3-3,2.8-4.3,4.4L5.3,18.9L0,32l9.9,6c-0.2,2-0.2,3.9,0,5.9
	l-9.5,6l5.5,13l10.6-2.6c1.4,1.8,3.1,3.5,4.9,5l-2.5,11.3L32,81.9l6-9.9c2,0.2,4,0.2,6,0l6.4,10l13-5.5l-2.7-11.3
	c1.7-1.4,3.3-3,4.7-4.7L76.7,63L82,49.9L72.1,43.9z"/>
</svg>
