<?xml version="1.0" encoding="utf-8"?>
<!-- Generator: Adobe Illustrator 18.1.0, SVG Export Plug-In . SVG Version: 6.00 Build 0)  -->
<!DOCTYPE svg PUBLIC "-//W3C//DTD SVG 1.1//EN" "http://www.w3.org/Graphics/SVG/1.1/DTD/svg11.dtd">
<svg version="1.1" id="Warstwa_1" xmlns="http://www.w3.org/2000/svg" xmlns:xlink="http://www.w3.org/1999/xlink" x="0px" y="0px"
	 width="82px" height="82px" viewBox="0 0 82 82" enable-background="new 0 0 82 82" xml:space="preserve">
<path fill="#FFFFFF" d="M42,57.4c-0.7-1.6-3.4-7.9-6-13.9l0,0c-2.4-5.5-4.6-10.6-5.3-12c-1.6-3.3,2.1-5.5,3.9-5.8
	c6.5-1.3,10.7-4,9.3-7.3c-1.5-3.3-6-13.5-7-16c-1.1-3.4-6.2-2.3-7.8-1.7C6.3,10.4,15.9,37.6,15.9,37.6l5.2,12.1l0,0l0,0l6.2,13.9
	c0,0,13.4,25.6,36.4,16.5c1.6-0.8,5.9-3.6,4.2-6.7c-1.2-2.5-5.6-12.7-7-16c-1.4-3.3-6.3-2.3-11.8,1.4C47.5,59.8,43.4,60.8,42,57.4"
	/>
</svg>
