<!-- Modulus Futuramo Icons 2014 --><svg xmlns="http://www.w3.org/2000/svg" x="0px" y="0px" width="64px" height="64px" viewBox="0 0 32 32"><path fill="#ffffff" d="M16,7.016c2.566,1.231,5.326,1.958,7.755,2.387C23.176,13.767,21.344,19.78,16,24.525 C10.658,19.78,8.825,13.767,8.245,9.402C10.675,8.974,13.435,8.247,16,7.016 M16,0.611c-0.511,0-1.023,0.135-1.477,0.401 C11.357,2.874,7.305,3.575,4.697,3.84C3.139,3.998,1.964,5.34,2.02,6.907C2.202,12,3.815,22.713,13.503,30.249 c0.736,0.571,1.616,0.857,2.497,0.857c0.881,0,1.761-0.286,2.497-0.857C28.186,22.713,29.799,12,29.981,6.907 c0.056-1.567-1.119-2.909-2.678-3.067c-2.607-0.265-6.66-0.966-9.826-2.827C17.023,0.746,16.512,0.611,16,0.611 M13.462,12.762 c-0.169-0.17-0.398-0.265-0.638-0.265c-0.24-0.001-0.469,0.095-0.638,0.265l-0.136,0.137c-0.35,0.351-0.35,0.919,0,1.27l2.953,2.965 c0.169,0.17,0.398,0.265,0.638,0.265c0.239,0,0.469-0.096,0.638-0.265l5.059-5.085c0.349-0.352,0.349-0.918,0-1.27l-0.137-0.138 c-0.169-0.17-0.398-0.266-0.638-0.266c-0.24,0-0.469,0.096-0.638,0.266l-4.287,4.308L13.462,12.762z"></path></svg>
