<!-- Modulus Futuramo Icons 2014 --><svg xmlns="http://www.w3.org/2000/svg" x="0px" y="0px" width="64px" height="64px" viewBox="0 0 32 32"><path fill="#ffffff" d="M24,12.917v-2.916h-2.343c-0.79,0-1.564,0.318-2.122,0.877l-3.707,3.708l-1.414-1.414l3.707-3.708 c0.946-0.943,2.2-1.463,3.536-1.463H24v-2.92c0-0.218,0.118-0.419,0.31-0.524c0.19-0.105,0.424-0.1,0.608,0.017l5.726,3.578 c0.292,0.183,0.47,0.503,0.47,0.848c0,0.345-0.178,0.665-0.47,0.848l-5.726,3.578c-0.185,0.116-0.418,0.122-0.608,0.017 C24.118,13.336,24,13.135,24,12.917z M4.343,21.997H1.001c-0.553,0-1,0.447-1,1c0,0.553,0.447,1,1,1h3.342 c1.336,0,2.59-0.519,3.536-1.463l3.706-3.707l-1.414-1.414L6.465,21.12C5.907,21.679,5.133,21.997,4.343,21.997z M1,9.999h3.344 c0.788,0,1.562,0.32,2.12,0.879L18.12,22.534c0.946,0.945,2.2,1.465,3.536,1.465H24v2.918c0,0.218,0.118,0.419,0.31,0.524 c0.19,0.105,0.424,0.1,0.608-0.017l5.726-3.578c0.292-0.183,0.47-0.503,0.47-0.848c0-0.345-0.178-0.665-0.47-0.848l-5.726-3.578 c-0.185-0.116-0.418-0.122-0.608-0.017C24.118,18.662,24,18.863,24,19.081v2.918h-2.344c-0.79,0-1.562-0.32-2.122-0.879L7.878,9.464 C6.935,8.519,5.681,7.999,4.344,7.999H1c-0.553,0-1,0.447-1,1C0,9.552,0.447,9.999,1,9.999z"></path></svg>
