<?xml version="1.0" encoding="utf-8"?>
<!-- Generator: Adobe Illustrator 18.1.0, SVG Export Plug-In . SVG Version: 6.00 Build 0)  -->
<!DOCTYPE svg PUBLIC "-//W3C//DTD SVG 1.1//EN" "http://www.w3.org/Graphics/SVG/1.1/DTD/svg11.dtd">
<svg version="1.1" id="Warstwa_1" xmlns="http://www.w3.org/2000/svg" xmlns:xlink="http://www.w3.org/1999/xlink" x="0px" y="0px"
	 width="112px" height="112px" viewBox="-15 17 112 112" enable-background="new -15 17 112 112" xml:space="preserve">
<path fill="#ECF0EB" d="M41.7,104.8c-17.6,0-31.9-14.3-31.9-31.9s14.3-31.8,31.9-31.8S73.6,55.4,73.6,73S59.3,104.8,41.7,104.8"/>
<path fill="#E3A700" d="M41.7,39c-18.8,0-34,15.2-34,34s15.2,34,34,34s34-15.2,34-34S60.5,39,41.7,39 M41.7,43.2
	c16.4,0,29.8,13.3,29.8,29.8s-13.4,29.7-29.8,29.7S12,89.4,12,73S25.3,43.2,41.7,43.2"/>
<line fill="none" stroke="#B97800" stroke-miterlimit="10" x1="57.4" y1="57.2" x2="35.9" y2="78.8"/>
<rect x="40.3" y="48.9" fill="#4D4D4D" width="2.8" height="25.5"/>
<rect x="40.3" y="71.6" fill="#4D4D4D" width="19.8" height="2.8"/>
<path fill="#4D4D4D" d="M44.5,73c0,1.6-1.3,2.8-2.8,2.8c-1.6,0-2.8-1.3-2.8-2.8c0-1.6,1.3-2.8,2.8-2.8C43.3,70.1,44.5,71.4,44.5,73"
	/>
</svg>
