<!-- Modulus Futuramo Icons 2014 --><svg xmlns="http://www.w3.org/2000/svg" x="0px" y="0px" width="64px" height="64px" viewBox="0 0 32 32"><path fill="#ffffff" d="M24,15.871l-2.472,5.267L16,21.983l4,4.1l-0.944,5.789L24,29.138l4.944,2.733L28,26.083l4-4.1l-5.528-0.845 L24,15.871z M27.284,25.384l-0.352,0.361l0.081,0.498L27.626,30l-3.142-1.737L24,27.996l-0.484,0.267L20.374,30l0.613-3.756 l0.081-0.498l-0.352-0.361l-2.641-2.707l3.604-0.551l0.527-0.081l0.227-0.483L24,18.225l1.567,3.338l0.227,0.483l0.527,0.081 l3.604,0.551L27.284,25.384z M17,32v-1H1c-0.004-3.401,0.05-6.615,1.775-9.561C5.102,17.467,9.402,15,13.999,15 c2.399,0,4.732,0.705,6.747,1.935l0.802-0.657c-1.388-0.891-2.924-1.55-4.547-1.914c2.644-1.159,4.495-3.792,4.495-6.864 c0-4.142-3.358-7.5-7.5-7.5s-7.5,3.358-7.5,7.5c0,3.07,1.849,5.702,4.491,6.862c-3.755,0.843-7.1,3.199-9.075,6.572 C-0.123,24.409,0.001,28.13,0.001,32H17z M7.497,7.5c0-3.584,2.916-6.5,6.5-6.5s6.5,2.916,6.5,6.5s-2.916,6.5-6.5,6.5 S7.497,11.084,7.497,7.5z"></path></svg>
