<!-- Modulus Futuramo Icons 2014 --><svg xmlns="http://www.w3.org/2000/svg" x="0px" y="0px" width="64px" height="64px" viewBox="0 0 32 32"><path fill="#ffffff" d="M4,6h24v2H4V6z M4,12h24v-2H4V12z M4,16h24v-2H4V16z M32,6v12c0,3.314-2.686,6-6,6H16l-8.375,6.7 c-0.3,0.24-0.712,0.287-1.058,0.12S6,30.303,6.001,29.919L6.002,24c-3.314,0-6-2.686-6-6L0,6c0-1.591,0.632-3.118,1.757-4.243 C2.883,0.632,4.409,0,6,0h20C29.314,0,32,2.686,32,6z M30,6c0-2.209-1.791-4-4-4H6C4.939,2,3.922,2.421,3.172,3.172 C2.422,3.922,2,4.939,2,6l0.001,12c0,2.209,1.791,4,4,4h2L8,27.838L15.299,22H26c2.209,0,4-1.791,4-4V6z"></path></svg>
