<!-- Modulus Futuramo Icons 2014 --><svg xmlns="http://www.w3.org/2000/svg" x="0px" y="0px" width="64px" height="64px" viewBox="0 0 32 32"><path fill="#ffffff" d="M10,15c0-1.104,0.895-2,2-2s2,0.896,2,2s-0.895,2-2,2S10,16.104,10,15z M20,17c1.105,0,2-0.896,2-2 s-0.895-2-2-2s-2,0.896-2,2S18.895,17,20,17z M16,25c-2.604,0-4.803-1.677-5.631-4H8.283c0.892,3.444,3.994,6,7.717,6 s6.825-2.556,7.717-6h-2.085C20.803,23.323,18.604,25,16,25z M32,9c0,2.735-1.374,5.146-3.467,6.589l-0.001-0.003 C28.828,16.675,29,17.816,29,19c0,7.18-5.82,13-13,13S3,26.18,3,19c0-1.184,0.172-2.325,0.468-3.414l-0.001,0.003 C1.374,14.146,0,11.735,0,9c0-4.418,3.582-8,8-8c3.368,0,6.244,2.083,7.424,5.029l-0.002,0C15.615,6.021,15.805,6,16,6 s0.385,0.021,0.578,0.029l-0.002,0C17.756,3.083,20.632,1,24,1C28.418,1,32,4.582,32,9z M3.788,14.578 c1.633-4.508,5.678-7.85,10.583-8.465H14.37C13.267,3.691,10.83,2,8,2C4.14,2,1,5.14,1,9C1,11.278,2.099,13.299,3.788,14.578z  M28,19c0-6.617-5.383-12-12-12S4,12.383,4,19s5.383,12,12,12S28,25.617,28,19z M31,9c0-3.86-3.14-7-7-7 c-2.83,0-5.267,1.691-6.37,4.113h-0.001c4.905,0.615,8.949,3.957,10.583,8.465C29.901,13.299,31,11.278,31,9z"></path></svg>
