<!-- Modulus Futuramo Icons 2014 --><svg xmlns="http://www.w3.org/2000/svg" x="0px" y="0px" width="64px" height="64px" viewBox="0 0 32 32"><path fill="#ffffff" d="M10,4C8.895,4,8,3.105,8,2s0.895-2,2-2c1.105,0,2,0.895,2,2S11.105,4,10,4z M20,3c0-1.656-1.344-3-3-3 c-1.656,0-3,1.344-3,3s1.344,3,3,3C18.656,6,20,4.656,20,3z M6,8c0,1.105,0.895,2,2,2c1.105,0,2-0.895,2-2S9.105,6,8,6 C6.895,6,6,6.895,6,8z M3,2C2.447,2,2,2.447,2,3s0.447,1,1,1c0.553,0,1-0.447,1-1S3.553,2,3,2z M27.464,27.156 C27.814,27.707,28,28.347,28,29c0,1.657-1.343,3-3,3h-9H9c-1.657,0-3-1.343-3-3c0-0.653,0.186-1.293,0.536-1.844l7.152-11.265 C13.892,15.57,14,15.198,14,14.819V10h-1c-0.552,0-1-0.448-1-1c0-0.552,0.448-1,1-1h3h2h3c0.552,0,1,0.448,1,1c0,0.552-0.448,1-1,1 h-1v4.819c0,0.38,0.108,0.751,0.312,1.072L27.464,27.156z M26,29c0-0.274-0.078-0.541-0.224-0.772l-7.152-11.265 C18.215,16.321,18,15.579,18,14.819V10h-2v4.819c0,0.76-0.215,1.502-0.623,2.144L8.224,28.228C8.078,28.459,8,28.726,8,29 c0,0.551,0.449,1,1,1h7h9C25.551,30,26,29.551,26,29z"></path></svg>
