<!-- Modulus Futuramo Icons 2014 --><svg xmlns="http://www.w3.org/2000/svg" x="0px" y="0px" width="64px" height="64px" viewBox="0 0 32 32"><path fill="#ffffff" d="M9.391,24.26L9.391,24.26l0.003,0.001c5.707,3.295,11.391,4.267,11.391,4.267 c-0.444-7.185,0.298-8.849,2.279-12.324c1.4-2.454,0.851-4.536-0.206-6.11c0.539-0.397,1.008-0.904,1.364-1.52 c1.381-2.391,0.561-5.449-1.83-6.83c-2.392-1.381-5.45-0.562-6.831,1.83c-0.356,0.616-0.56,1.277-0.635,1.942 c-1.892-0.128-3.969,0.437-5.394,2.877C7.514,11.846,6.444,13.321,0,16.529C0,16.529,3.684,20.965,9.391,24.26z M17.294,4.574 c0.827-1.433,2.666-1.925,4.098-1.098c1.433,0.827,1.925,2.666,1.098,4.098c-0.239,0.414-0.568,0.739-0.942,0.987 c-0.921-0.869-1.833-1.434-2.156-1.62c-0.323-0.187-1.269-0.694-2.482-1.057C16.938,5.436,17.055,4.988,17.294,4.574z M10.396,8.898 c1.185-2.028,2.906-2.522,4.518-2.409c0.753,0.053,1.478,0.237,2.119,0.463c0.801,0.284,1.467,0.628,1.859,0.855 c0.392,0.227,1.023,0.631,1.668,1.182c0.517,0.441,1.038,0.977,1.461,1.603c0.904,1.34,1.337,3.077,0.173,5.117 c-2.005,3.516-2.755,5.453-2.48,11.565c-1.945-0.47-5.9-1.615-9.825-3.881C5.967,21.129,3,18.277,1.621,16.828 C7.052,14.01,8.354,12.392,10.396,8.898z M6.413,29.469c-1.903-1.099-2.55-3.541-1.446-5.454l6.89,3.978 C10.753,29.907,8.315,30.567,6.413,29.469z M1.45,10.703C0.307,6.436,2.84,2.049,7.107,0.905c0.472-0.127,0.946-0.201,1.416-0.24 l0.082,0.996C8.193,1.695,7.779,1.76,7.366,1.871c-3.728,0.999-5.949,4.845-4.95,8.573c0.111,0.413,0.261,0.804,0.438,1.178 L1.951,12.05C1.749,11.623,1.577,11.176,1.45,10.703z M7.884,3.803c0.295-0.079,0.591-0.12,0.885-0.144l0.082,0.995 C8.615,4.673,8.379,4.706,8.143,4.769C6.012,5.34,4.743,7.538,5.314,9.668c0.063,0.236,0.153,0.457,0.254,0.671l-0.903,0.427 c-0.126-0.267-0.239-0.544-0.318-0.839C3.633,7.26,5.216,4.518,7.884,3.803z M30.762,14.562c1.144,4.268-1.389,8.654-5.657,9.798 c-0.472,0.127-0.946,0.201-1.416,0.24l-0.082-0.996c0.412-0.034,0.826-0.099,1.239-0.21c3.728-0.999,5.949-4.845,4.95-8.573 c-0.111-0.413-0.262-0.804-0.438-1.178l0.904-0.427C30.463,13.643,30.635,14.09,30.762,14.562z M26.898,15.597 c-0.063-0.236-0.154-0.457-0.255-0.671l0.902-0.427c0.126,0.267,0.239,0.544,0.318,0.839c0.715,2.667-0.868,5.409-3.536,6.124 c-0.295,0.079-0.591,0.12-0.886,0.144l-0.082-0.995c0.235-0.019,0.472-0.052,0.708-0.115C26.2,19.926,27.469,17.728,26.898,15.597z"></path></svg>
