<?xml version="1.0" encoding="utf-8"?>
<!-- Generator: Adobe Illustrator 18.1.0, SVG Export Plug-In . SVG Version: 6.00 Build 0)  -->
<!DOCTYPE svg PUBLIC "-//W3C//DTD SVG 1.1//EN" "http://www.w3.org/Graphics/SVG/1.1/DTD/svg11.dtd">
<svg version="1.1" id="Warstwa_1" xmlns="http://www.w3.org/2000/svg" xmlns:xlink="http://www.w3.org/1999/xlink" x="0px" y="0px"
	 width="720px" height="144px" viewBox="0 0 720 144" enable-background="new 0 0 720 144" xml:space="preserve">
<rect x="144" y="0" fill="#FFFFFF" width="576" height="144"/>
<polygon fill="#ED2E7A" points="224,57.3 224,41 200,41 184,41 184,57.3 184,69.5 184,85.7 184,102 200,102 200,85.7 218,85.7 
	218,69.5 200,69.5 200,57.3 "/>
<path fill="#ED2E7A" d="M271,41v32.3c0,8.4-2.6,13.8-9.9,13.8h-0.1c-7.4,0-9.9-5.4-9.9-13.8V41h-16v33.3c0,19.6,13.5,27.7,25.9,27.7
	h0.1h0.1c12.1,0,25.9-8.1,25.9-27.7V41H271z"/>
<polygon fill="#ED2E7A" points="343,41 327.7,41 311.3,41 296,41 296,57.3 311.3,57.3 311.3,102 327.7,102 327.7,57.3 343,57.3 "/>
<path fill="#ED2E7A" d="M389.4,41v32.3c0,8.4-2.7,13.8-10.3,13.8h-0.1c-7.7,0-10.3-5.4-10.3-13.8V41H352v33.3
	c0,19.6,14,27.7,26.9,27.7h0.1h0.1c12.6,0,26.9-8.1,26.9-27.7V41H389.4z"/>
<path fill="#ED2E7A" d="M466,102l-13.1-20c6-4,9.9-10.9,9.9-18.6c0-12.2-9.8-22.2-22-22.4v0h-10.6H414v16.3V102h16.3V85.8h7.3
	l10.9,16.2H466z M430.3,57.3h10.1v0c3.3,0.1,6,2.8,6,6.1c0,3.4-2.7,7.1-6,7.1h-10.1V57.3z"/>
<path fill="#ED2E7A" d="M515.7,102H534l-19.7-61H512h-18.8h-3.5L470,102h18.3l2.6-9.4h22.3L515.7,102z M495,77.4l5.5-20.1h1.3h1.6
	l5.5,20.1H495z"/>
<polygon fill="#ED2E7A" points="607.7,41 591.7,41 587.4,41 574,78.4 560.4,41 540,41 540,102 556.3,102 556.3,62.6 569.9,102 
	578.4,102 591.7,62.6 591.7,102 608,102 608,41 "/>
<path fill="#ED2E7A" d="M647.1,40c-17.6,0-31.9,14.3-31.9,32c0,17.7,14.3,32,31.9,32c17.6,0,31.9-14.3,31.9-32
	C679,54.3,664.7,40,647.1,40 M647.1,88.2c-8.4,0-15.2-7.8-15.2-16.2c0-8.4,6.8-16.2,15.2-16.2c8.4,0,15.2,7.8,15.2,16.2
	C662.3,80.4,655.5,88.2,647.1,88.2"/>
<rect y="0" fill="#213D4E" width="144" height="144"/>
<polygon fill="#FFFFFF" points="53.9,53.9 72,53.9 72,36 36,36 36,108 53.9,108 53.9,90 72,90 72,72.1 53.9,72.1 53.9,71.9 "/>
<polygon fill="#ED2E7A" points="90.1,36 90.1,54 72,54 72,71.9 90.1,71.9 90.1,90 90.1,90.1 72,90.1 72,108 108,108 108,36 "/>
</svg>
