<!-- Modulus Futuramo Icons 2014 --><svg xmlns="http://www.w3.org/2000/svg" x="0px" y="0px" width="64px" height="64px" viewBox="0 0 32 32"><path fill="#ffffff" d="M6,26c0,0-4.5,6,0,6S6,26,6,26z M5.999,27.813c0.703,1.209,1.18,2.469,0.95,2.929 C6.869,30.901,6.506,31,6,31c-0.506,0-0.869-0.099-0.949-0.258C4.815,30.27,5.294,29.018,5.999,27.813z M27.534,0.766 c-0.198-0.236-0.481-0.357-0.766-0.357c-0.227,0-0.455,0.077-0.642,0.234l-3.83,3.214l-5.154-0.451 c-0.006-0.001-0.013-0.001-0.019-0.001c-0.166,0-0.262,0.197-0.152,0.329l2.261,2.694L8.506,15.427l-3.337,8.16l-0.085,0.208 l0.212-0.056l8.352-2.184l10.725-8.999l2.258,2.691c0.041,0.049,0.097,0.072,0.152,0.072c0.097,0,0.192-0.07,0.201-0.184l0.42-5.19 l3.83-3.214c0.423-0.355,0.478-0.986,0.123-1.409L27.534,0.766z M13.178,20.645l-6.411,1.676l2.571-6.287l10.535-8.84l3.857,4.596 L13.178,20.645z M26.761,9.179l-0.32,0.269l-0.034,0.417l-0.263,3.247L18.977,4.57l3.23,0.283l0.413,0.036l0.317-0.266l3.83-3.214 l3.823,4.556L26.761,9.179z M15.013,17.799l-2.306,1.935l-4.256,1.113l1.72-4.206l2.271-1.906L15.013,17.799z"></path></svg>
