<!-- Modulus Futuramo Icons 2014 --><svg xmlns="http://www.w3.org/2000/svg" x="0px" y="0px" width="64px" height="64px" viewBox="0 0 32 32"><path fill="#ffffff" d="M16,9.002c-1.473,0-2.742,0.801-3.438,1.982C12.215,11.578,12,12.264,12,13.002c0,2.209,1.789,4,4,4 c2.211,0,4-1.791,4-4c0-0.738-0.215-1.424-0.563-2.018C18.742,9.803,17.473,9.002,16,9.002z M4,13c0-2.856,1.004-5.483,2.677-7.547 c0.451-0.557,0.41-1.364-0.096-1.871L5.723,2.725C5.444,2.446,5.06,2.297,4.665,2.317C4.27,2.336,3.903,2.521,3.652,2.826 C1.372,5.59,0,9.135,0,13s1.372,7.41,3.652,10.176c0.251,0.305,0.618,0.489,1.013,0.508c0.395,0.02,0.779-0.128,1.059-0.407 l0.857-0.857c0.507-0.507,0.548-1.313,0.096-1.871C5.004,18.485,4,15.857,4,13z M27.331,2.316c-0.394-0.018-0.777,0.13-1.057,0.41 l-0.856,0.857c-0.508,0.507-0.549,1.313-0.097,1.871C26.995,7.517,28,10.144,28,13.002c0,2.856-1.005,5.483-2.679,7.547 c-0.451,0.556-0.41,1.364,0.097,1.871l0.856,0.858c0.279,0.279,0.663,0.427,1.057,0.408c0.393-0.019,0.763-0.202,1.015-0.505 C30.63,20.414,32,16.868,32,13.002c0-3.866-1.37-7.413-3.655-10.179C28.094,2.519,27.726,2.334,27.331,2.316z M24.13,7.175 c-0.24-0.334-0.614-0.546-1.023-0.58C22.696,6.562,22.291,6.708,22.001,7l-0.865,0.865C20.66,8.34,20.591,9.083,20.969,9.64 C21.62,10.599,22,11.756,22,13s-0.38,2.401-1.031,3.36c-0.377,0.555-0.308,1.301,0.167,1.775L22.001,19 c0.29,0.291,0.694,0.439,1.104,0.405c0.41-0.034,0.784-0.246,1.024-0.581C25.306,17.185,26,15.173,26,13S25.306,8.815,24.13,7.175z  M10,13c0-1.244,0.38-2.401,1.03-3.36c0.377-0.555,0.308-1.3-0.167-1.775L10,7.001C9.71,6.71,9.306,6.562,8.895,6.595 c-0.41,0.034-0.784,0.246-1.023,0.58C6.693,8.816,6,10.828,6,13c0,2.174,0.693,4.185,1.872,5.827 c0.239,0.333,0.613,0.545,1.023,0.579C9.305,19.439,9.71,19.292,10,19.001l0.863-0.864c0.476-0.476,0.545-1.218,0.167-1.775 C10.38,15.403,10,14.246,10,13z M17.225,19.974l2.351,10.188C19.793,31.103,19.079,32,18.114,32h-4.229 c-0.965,0-1.678-0.897-1.462-1.837l2.351-10.188C14.907,19.404,15.415,19,16,19h0C16.585,19,17.093,19.404,17.225,19.974z"></path></svg>
