<?xml version="1.0" encoding="utf-8"?>
<!-- Generator: Adobe Illustrator 18.1.0, SVG Export Plug-In . SVG Version: 6.00 Build 0)  -->
<!DOCTYPE svg PUBLIC "-//W3C//DTD SVG 1.1//EN" "http://www.w3.org/Graphics/SVG/1.1/DTD/svg11.dtd">
<svg version="1.1" id="Warstwa_1" xmlns="http://www.w3.org/2000/svg" xmlns:xlink="http://www.w3.org/1999/xlink" x="0px" y="0px"
	 width="56px" height="56px" viewBox="0 0 56 56" enable-background="new 0 0 56 56" xml:space="preserve">
<path fill="#ED2E7A" d="M18,36h4v4h-4V36z M26,36h4v4h-4V36z M34,36h4v4h-4V36z M18,30h4v4h-4V30z M26,30h4v4h-4V30z M34,30h4v4h-4
	V30z M18,24h4v4h-4V24z M26,24h4v4h-4V24z M34,24h4v4h-4V24z M18,16h20v4H18V16z M14,44h28V12H14V44z"/>
</svg>
