<?xml version="1.0" encoding="utf-8"?>
<!-- Generator: Adobe Illustrator 18.1.0, SVG Export Plug-In . SVG Version: 6.00 Build 0)  -->
<!DOCTYPE svg PUBLIC "-//W3C//DTD SVG 1.1//EN" "http://www.w3.org/Graphics/SVG/1.1/DTD/svg11.dtd">
<svg version="1.1" id="Warstwa_1" xmlns="http://www.w3.org/2000/svg" xmlns:xlink="http://www.w3.org/1999/xlink" x="0px" y="0px"
	 width="56px" height="56px" viewBox="0 0 56 56" enable-background="new 0 0 56 56" xml:space="preserve">
<path fill="#FFFFFF" d="M19,17.7l6,9.3l-6,9.3V39h2l6-6h2l6,6h2v-2.7L31,27l6-9.3V15H19V17.7z M15,11h26v7.8L35.8,27l5.2,8.2V43H15
	v-7.8l5.2-8.2L15,18.8V11z M27,31h2v-2h-2V31z M27,27h2v-2h-2V27z M27,23l-4-4h10l-4,4H27z"/>
</svg>
