<!-- Modulus Futuramo Icons 2014 --><svg xmlns="http://www.w3.org/2000/svg" x="0px" y="0px" width="64px" height="64px" viewBox="0 0 32 32"><path fill="#ffffff" d="M17.333,15.141l-4.859-4.468l-4.468,4.859L12.865,20L17.333,15.141z M9.419,15.473l3.114-3.387L15.92,15.2 l-3.114,3.387L9.419,15.473z M28.006,9.928l-5.532-3.602l-3.601,5.532l5.532,3.602L28.006,9.928z M20.256,11.565l2.51-3.855 l3.856,2.511l-2.51,3.855L20.256,11.565z M18.524,6.17L16.176,0l-6.17,2.349l2.348,6.169L18.524,6.17z M15.597,1.29l1.637,4.301 l-4.3,1.637l-1.637-4.3L15.597,1.29z M1.462,5C1.66,5,1.848,4.96,2.021,4.89l1.954,2.601L6.048,22h2.888l-1.447,4.053 C7.318,26.023,7.145,26,6.967,26c-1.657,0-3,1.343-3,3s1.343,3,3,3s3-1.343,3-3h10.954c0,1.657,1.343,3,3,3s3-1.343,3-3 s-1.343-3-3-3c-1.304,0-2.403,0.837-2.816,2H9.783c-0.244-0.687-0.728-1.252-1.355-1.605L9.997,22h0.015h15.904L32,7h-1.081 l-5.673,14H6.915L4.921,7L2.769,4.223C2.888,4.008,2.962,3.764,2.962,3.5c0-0.828-0.672-1.5-1.5-1.5s-1.5,0.672-1.5,1.5 S0.634,5,1.462,5z M23.921,27c1.105,0,2,0.895,2,2c0,1.105-0.895,2-2,2s-2-0.895-2-2C21.921,27.895,22.816,27,23.921,27z M8.921,29 c0,1.105-0.895,2-2,2s-2-0.895-2-2c0-1.105,0.895-2,2-2S8.921,27.895,8.921,29z"></path></svg>
