<!-- Modulus Futuramo Icons 2014 --><svg xmlns="http://www.w3.org/2000/svg" x="0px" y="0px" width="64px" height="64px" viewBox="0 0 32 32"><path fill="#ffffff" d="M16,1.251c4.284,3.021,10.599,3.607,12.983,3.721C29.096,8.564,28.658,22.441,16,30.809 C3.371,22.457,2.912,8.564,3.019,4.972C5.404,4.858,11.718,4.271,16,1.251 M16,0C11.026,4,2.071,4,2.071,4S0.172,22,16,32 C31.829,22,29.929,4,29.929,4S20.975,4,16,0 M15.728,17.07l-4.242-4.242l-1.414,1.414l5.658,5.654l8.483-8.483L22.799,10 L15.728,17.07z"></path></svg>
