<!-- Modulus Futuramo Icons 2014 --><svg xmlns="http://www.w3.org/2000/svg" x="0px" y="0px" width="64px" height="64px" viewBox="0 0 32 32"><path fill="#ffffff" d="M26,7H6V4h20V7z M8,10H6v2h2V10z M14,10h-2v2h2V10z M20,10h-2v2h2V10z M26,10h-2v2h2V10z M8,15H6v2h2V15z  M14,15h-2v2h2V15z M20,15h-2v2h2V15z M26,15h-2v2h2V15z M8,20H6v2h2V20z M14,20h-2v2h2V20z M20,20h-2v2h2V20z M26,20h-2v2h2V20z  M8,25H6v2h2V25z M14,25h-2v2h2V25z M20,25h-2v2h2V25z M26,25h-2v2h2V25z M29,1H3v30h26V1 M30,0v32H2V0H30L30,0z"></path></svg>
