<!-- Modulus Futuramo Icons 2014 --><svg xmlns="http://www.w3.org/2000/svg" x="0px" y="0px" width="64px" height="64px" viewBox="0 0 32 32"><path fill="#ffffff" d="M4,28c0,2.209,1.791,4,4,4h14c2.209,0,4-1.791,4-4V8H4V28z M6,10h18v18c0,1.105-0.895,2-2,2H8 c-1.105,0-2-0.895-2-2V10z M15,26c3.866,0,7-3.134,7-7s-3.134-7-7-7s-7,3.134-7,7S11.134,26,15,26z M15,14c2.757,0,5,2.243,5,5 c0,0.342-0.035,0.677-0.101,1h-9.798C10.035,19.677,10,19.342,10,19C10,16.243,12.243,14,15,14z M22,0H8C5.791,0,4,1.791,4,4v2h22V4 C26,1.791,24.209,0,22,0z M6,4c0-1.103,0.897-2,2-2h14c1.103,0,2,0.897,2,2H6z"></path></svg>
