<!-- Modulus Futuramo Icons 2014 --><svg xmlns="http://www.w3.org/2000/svg" x="0px" y="0px" width="64px" height="64px" viewBox="0 0 32 32"><path fill="#ffffff" d="M21.871,18.183c3.118-1.765,5.499-4.682,6.542-8.183h-1.049c-0.972,2.997-3.015,5.506-5.663,7.111 c-0.574-2.711-1.934-4.933-3.7-6.135C19.208,10.063,20,8.63,20,7c0-0.247-0.038-0.485-0.073-0.722C21.791,4.813,23,2.554,23,0h-1 c0,2.071-0.91,3.927-2.344,5.21C18.934,3.336,17.129,2,15,2s-3.934,1.336-4.656,3.21C8.91,3.927,8,2.071,8,0H7 c0,2.554,1.209,4.813,3.073,6.278C10.038,6.515,10,6.753,10,7c0,1.63,0.792,3.063,1.999,3.976c-1.766,1.201-3.126,3.424-3.7,6.135 C5.651,15.506,3.609,12.997,2.636,10H1.587c1.043,3.501,3.424,6.418,6.542,8.183C8.053,18.774,8,19.377,8,20H0v1h8.035 c0.042,0.601,0.126,1.183,0.239,1.748C4.792,24.666,2.204,28.005,1.33,32h1.033c0.835-3.517,3.107-6.476,6.152-8.243 C9.555,27.417,12.065,30,15,30s5.445-2.583,6.485-6.243c3.045,1.767,5.317,4.726,6.152,8.243h1.033 c-0.873-3.995-3.462-7.334-6.944-9.252c0.113-0.565,0.197-1.147,0.239-1.748H30v-1h-8C22,19.377,21.947,18.774,21.871,18.183z M11,7 c0-2.206,1.794-4,4-4s4,1.794,4,4c0,1.463-0.798,2.732-1.974,3.429C16.385,10.152,15.705,10,15,10s-1.385,0.152-2.026,0.429 C11.798,9.732,11,8.463,11,7z M15,29c-3.308,0-6-4.037-6-9c0-3.882,1.65-7.189,3.952-8.448C13.592,11.201,14.28,11,15,11 s1.408,0.201,2.048,0.552C19.35,12.811,21,16.118,21,20C21,24.963,18.308,29,15,29z"></path></svg>
