<!-- Modulus Futuramo Icons 2014 --><svg xmlns="http://www.w3.org/2000/svg" x="0px" y="0px" width="64px" height="64px" viewBox="0 0 32 32"><path fill="#ffffff" d="M28.111,12.086L31,12.86l-0.259,0.962l-2.889-0.773L28.111,12.086z M23.338,20.522l0.962-0.257l-0.774-2.889 l-0.963,0.257L23.338,20.522z M28.641,4.062l-0.704-0.706l-2.114,2.116l0.704,0.705L28.641,4.062z M14.622,8.472l-2.888-0.774 l-0.259,0.963l2.889,0.773L14.622,8.472z M19.912,3.888L19.138,1l-0.964,0.257l0.775,2.889L19.912,3.888z M1,30.296L1.703,31 l14.245-14.246l-0.706-0.703L1,30.296z M17.806,14.31l2.818-0.94l1.972,2.223l0.598-2.912l2.911-0.595l-2.224-1.973l0.94-2.819 l-2.819,0.94L20.031,6.01l-0.597,2.912l-2.91,0.595l2.223,1.973L17.806,14.31z"></path></svg>
