<!-- Modulus Futuramo Icons 2014 --><svg xmlns="http://www.w3.org/2000/svg" x="0px" y="0px" width="64px" height="64px" viewBox="0 0 32 32"><path fill="#ffffff" d="M9.099,22.901c0.46,0.451,0.971,0.898,1.509,1.339C14.663,27.559,21.214,30,22.996,30 c0.166,0,0.29-0.021,0.367-0.065c2.158-1.215,4.764-3.059,4.652-3.523c-0.168-0.695-4.766-4.378-6.618-4.951 c-0.012-0.004-0.026-0.006-0.042-0.006c-0.54,0-2.932,2.262-3.337,2.262c-0.004,0-0.008,0-0.012-0.001 c-1.297-0.168-4.2-1.838-6.062-3.661c-1.823-1.862-3.494-4.765-3.661-6.062c-0.049-0.377,2.394-2.943,2.256-3.39 C9.966,8.75,6.283,4.153,5.588,3.985c-0.01-0.002-0.02-0.003-0.031-0.003c-0.51,0-2.302,2.542-3.492,4.656 C1.554,9.545,4.132,16.96,7.761,21.391C8.201,21.929,8.648,22.441,9.099,22.901z M5.573,5.222c1.026,1.018,3.273,3.912,3.903,5.388 c-0.213,0.332-0.672,0.913-0.969,1.287c-0.94,1.189-1.292,1.634-1.216,2.224c0.207,1.602,2.047,4.702,3.953,6.648 c1.931,1.891,5.031,3.731,6.632,3.938l0.076,0.009h0.065c0.511,0,0.908-0.294,2.084-1.225c0.374-0.296,0.955-0.755,1.287-0.968 c1.476,0.63,4.37,2.877,5.388,3.903c-0.646,0.57-2.105,1.613-3.792,2.573c-1.508-0.01-7.848-2.344-11.744-5.534 c-0.564-0.462-1.036-0.881-1.429-1.265c-0.398-0.406-0.817-0.878-1.279-1.443C5.252,16.749,2.954,10.273,2.997,9.02 C3.957,7.33,5.002,5.87,5.573,5.222z M30,17h-1c0-7.72-6.28-14-14-14V2C23.284,2,30,8.716,30,17z M15,7V6c6.075,0,11,4.925,11,11h-1 C25,11.486,20.514,7,15,7z M15,11v-1c3.866,0,7,3.134,7,7h-1C21,13.692,18.308,11,15,11z M15,15v-1c1.657,0,3,1.343,3,3h-1 C17,15.897,16.103,15,15,15z"></path></svg>
