<?xml version="1.0" encoding="utf-8"?>
<!-- Generator: Adobe Illustrator 18.1.0, SVG Export Plug-In . SVG Version: 6.00 Build 0)  -->
<!DOCTYPE svg PUBLIC "-//W3C//DTD SVG 1.1//EN" "http://www.w3.org/Graphics/SVG/1.1/DTD/svg11.dtd">
<svg version="1.1" id="Warstwa_1" xmlns="http://www.w3.org/2000/svg" xmlns:xlink="http://www.w3.org/1999/xlink" x="0px" y="0px"
	 width="102px" height="102px" viewBox="0 0 102 102" enable-background="new 0 0 102 102" xml:space="preserve">
<path fill="#FFFFFF" d="M71.8,40.1c0,17.1-7.6,21.3-7.6,21.3h-5.7c0,0,7.6-2.6,7.6-21.5c0-18.9-7.6-23.8-7.6-23.8h5.7
	C64.2,16.1,71.8,22.9,71.8,40.1 M56.7,40.6H43.4v-3.8h13.2V40.6z M37.8,48.2c0,2.1-1.7,3.8-3.8,3.8s-3.8-1.7-3.8-3.8
	c0-2.1,1.7-3.8,3.8-3.8S37.8,46.1,37.8,48.2 M37.8,29.3c0,2.1-1.7,3.8-3.8,3.8s-3.8-1.7-3.8-3.8c0-2.1,1.7-3.8,3.8-3.8
	S37.8,27.2,37.8,29.3 M102,65.2V12.3c0,0,0-11.3-11.3-11.3H11.3C11.3,1,0,1,0,12.3v52.8c0,0,0,11.3,11.3,11.3h21.2L71.8,101
	l-8.2-24.5h27.1C90.7,76.5,102,76.5,102,65.2"/>
</svg>
