<!-- Modulus Futuramo Icons 2014 --><svg xmlns="http://www.w3.org/2000/svg" x="0px" y="0px" width="64px" height="64px" viewBox="0 0 32 32"><path fill="#ffffff" d="M28,14H18v-2h10V14z M28,18v-2h-6v2H28z M6.364,19.668c0.391,0.391,1.024,0.391,1.414,0 c0.391-0.391,0.391-1.024,0-1.414l-4.95-4.95l4.95-4.95L5.657,6.233c-0.391-0.391-1.024-0.391-1.414,0L2.121,8.355 c-0.391,0.391-0.391,1.024,0,1.414l0.707,0.707L1.414,11.89c-0.781,0.781-0.781,2.047,0,2.828L6.364,19.668z M5.624,13.272 l8.485,8.485l3.536-3.536L9.16,9.737L5.624,13.272z M19.767,24.586l1.061,1.061c0.195,0.195,0.512,0.195,0.707,0 c0.094-0.094,0.146-0.221,0.146-0.354c0-0.133-0.053-0.26-0.147-0.354l-1.061-1.06l-1.414-4.243l-3.536,3.536L19.767,24.586z M10,0 v2h12v6c0,1.105,0.894,2,2,2h6v16c0,2.207-1.789,4-4,4H12c-2.211,0-4-1.793-4-4v-2H6v2c0,3.315,2.685,6,6,6h14c3.314,0,6-2.685,6-6 V8l-8-8H10z"></path></svg>
