<!-- Modulus Futuramo Icons 2014 --><svg xmlns="http://www.w3.org/2000/svg" x="0px" y="0px" width="64px" height="64px" viewBox="0 0 32 32"><path fill="#ffffff" d="M8,18.5C8,19.328,7.328,20,6.5,20S5,19.328,5,18.5S5.672,17,6.5,17 S8,17.672,8,18.5z M13,21c-1.105,0-2,0.895-2,2s0.895,2,2,2s2-0.895,2-2S14.105,21,13,21z M32,12v16H0V12l26.643-7 C28.514,6.265,30.882,8.475,32,12z M31,27v-5.778C30.469,21.701,29.772,22,29,22c-1.658,0-3-1.342-3-3c0-1.658,1.342-3,3-3 c0.772,0,1.469,0.299,2,0.777V13h-9.141C21.942,13.321,22,13.653,22,14c0,2.209-1.791,4-4,4c-2.209,0-4-1.791-4-4 c0-0.347,0.058-0.679,0.141-1H1v14h20.012c-0.317-0.419-0.512-0.935-0.512-1.5c0-1.38,1.12-2.5,2.5-2.5c1.38,0,2.5,1.12,2.5,2.5 c0,0.565-0.195,1.081-0.512,1.5H31z"></path></svg>
