<!-- Modulus Futuramo Icons 2014 --><svg xmlns="http://www.w3.org/2000/svg" x="0px" y="0px" width="64px" height="64px" viewBox="0 0 32 32"><path fill="#ffffff" d="M19.025,3.691c-0.963,0-1.972,0.087-3.025,0.275c-0.723,0.129-1.391,0.301-2.057,0.475 C13.663,1.946,11.57,0,9,0C6.238,0,4,2.238,4,5c0,1.332,0.608,2.666,1.61,3.601C4.004,9.958,2.806,11.44,2,12.874 C0.998,14.655-0.807,20,3.188,20c0,0,10.362,0,16.813,0c0.717,0,1.399,0,2,0c0.185,0,0.373,0,0.565,0c0.045,0,0.093,0,0.139,0H26 c1.103,0,2,0.897,2,2s-0.897,2-2,2h-4h-2h-8c-2.209,0-4,1.791-4,4s1.791,4,4,4h5h1h1c0.553,0,1-0.448,1-1s-0.447-1-1-1h-1h-1h-5 c-1.103,0-2-0.897-2-2s0.897-2,2-2h8h2h4c2.209,0,4-1.791,4-4c0-1.073-0.428-2.042-1.115-2.761C30.688,18.544,32,17.214,32,14.655 C32,9.992,27.196,3.691,19.025,3.691z M8,14H6v-2h2V14z"></path></svg>
