<svg xmlns="http://www.w3.org/2000/svg" width="115" height="24" viewBox="0 0 115 24"><style type="text/css">
	.st0{fill:#ffffff;}
	.st1{fill:#ffffff;}
</style><polygon class="st0" points="9.4 8.7 9.4 5 0 5 0 8.7 0 11.5 0 15.3 0 19 3.7 19 3.7 15.3 8 15.3 8 11.5 3.7 11.5 3.7 8.7 "/><path class="st0" d="M20.1 5v7.6c0 2-0.6 3.3-2.3 3.3h0c-1.7 0-2.3-1.3-2.3-3.3V5h-3.8v7.9c0 4.6 3.2 6.5 6.1 6.5h0 0c2.8 0 6.1-1.9 6.1-6.5V5H20.1z"/><polygon class="st0" points="36.5 5 25.7 5 25.7 8.7 29.2 8.7 29.2 19 33 19 33 8.7 36.5 8.7 "/><path class="st0" d="M47 5v7.6c0 2-0.6 3.3-2.3 3.3h0c-1.7 0-2.3-1.3-2.3-3.3V5h-3.8v7.9c0 4.6 3.2 6.5 6.1 6.5h0 0c2.8 0 6.1-1.9 6.1-6.5V5H47z"/><path class="st0" d="M65 19l-3-4.6c1.4-0.9 2.3-2.5 2.3-4.3 0-2.8-2.3-5.1-5.1-5.1H53v3.7V19h3.7v-3.7h1.7l2.5 3.7H65zM56.7 8.7h2.3v0c0.8 0 1.4 0.6 1.4 1.4 0 0.8-0.6 1.6-1.4 1.6h-2.3V8.7z"/><path class="st0" d="M76.8 19H81L76.5 5h-5.7l-4.5 14h4.2l0.6-2.2h5.2L76.8 19zM72 13.3l1.3-4.6h0.3H74l1.3 4.6H72z"/><polygon class="st0" points="93.2 5 90.2 10 87 5 82.3 5 82.3 19 86.1 19 86.1 10 90.2 16.3 94.3 9.9 94.3 19 98 19 98 5 "/><path class="st0" d="M107.4 8.3c2 0 3.7 1.7 3.7 3.7 0 2-1.7 3.7-3.7 3.7s-3.7-1.7-3.7-3.7C103.7 10 105.4 8.3 107.4 8.3M107.4 4.6c-4.1 0-7.4 3.3-7.4 7.4 0 4.1 3.3 7.4 7.4 7.4s7.4-3.3 7.4-7.4C114.8 7.9 111.5 4.6 107.4 4.6L107.4 4.6z"/></svg>
